<?xml version="1.0" encoding="utf-8"?>
<!-- Generator: Adobe Illustrator 24.0.0, SVG Export Plug-In . SVG Version: 6.00 Build 0)  -->
<svg version="1.1" id="Layer_2" xmlns="http://www.w3.org/2000/svg" xmlns:xlink="http://www.w3.org/1999/xlink" x="0px" y="0px"
	 viewBox="0 0 8171.4 3468" style="enable-background:new 0 0 8171.4 3468;" xml:space="preserve">
<style type="text/css">
	.st0{fill:#6D6E71;}
	.st1{fill:#D22128;}
	.st2{fill:url(#SVGID_1_);}
	.st3{fill:none;}
	.st4{fill:#BE202E;}
	.st5{opacity:0.35;fill:#BE202E;enable-background:new    ;}
	.st6{fill:url(#SVGID_2_);}
	.st7{fill:url(#SVGID_3_);}
	.st8{fill:url(#SVGID_4_);}
	.st9{fill:url(#SVGID_5_);}
	.st10{fill:url(#SVGID_6_);}
	.st11{fill:url(#SVGID_7_);}
	.st12{fill:url(#SVGID_8_);}
	.st13{fill:url(#SVGID_9_);}
	.st14{fill:url(#SVGID_10_);}
</style>
<path class="st0" d="M3050.7,1138.5v97.9h-12.6v-97.9h-35.8v-12.1h84.4v12.1H3050.7z"/>
<path class="st0" d="M3226.3,1236.4V1188H3160v48.4h-12.6v-110.1h12.6v49.7h66.3v-49.7h12.6v110.1H3226.3z"/>
<path class="st0" d="M3326.5,1138.5v36.2h55.5v12.1h-55.5v37.7h64.1v12h-76.7v-110.1h74.7v12.1L3326.5,1138.5L3326.5,1138.5z"/>
<path class="st1" d="M2906.4,1990.7l262.9-628.5h50.5l262.9,628.5h-66.4l-81.5-196.5h-282.4l-80.6,196.5H2906.4z M3195,1434.8
	l-129.2,310.7h255L3195,1434.8z"/>
<path class="st1" d="M3550.5,1990.7v-628.5h260.3c108,0,185.9,100,185.9,197.4c0,102.7-72.6,199.1-180.6,199.1h-204.5v231.9
	L3550.5,1990.7L3550.5,1990.7z M3611.6,1703.8h200.9c74.3,0,122.2-68.2,122.2-144.3c0-78.8-58.4-142.5-127.4-142.5h-195.6V1703.8
	L3611.6,1703.8z"/>
<path class="st1" d="M3962.3,1990.7l262.9-628.5h50.5l262.9,628.5h-66.4l-81.5-196.5h-282.4l-80.6,196.5H3962.3z M4250.9,1434.8
	l-129.2,310.7h255L4250.9,1434.8z"/>
<path class="st1" d="M4836,1358.6c111.5,0,193,56.6,231.9,137.2l-49.6,30.1c-39.8-83.2-117.7-111.5-185.9-111.5
	c-150.5,0-232.8,134.6-232.8,261.1c0,139,101.8,264.7,235.4,264.7c70.8,0,154-35.4,193.9-116.9l51.3,26.5
	c-40.7,93.8-152.3,146-248.7,146c-172.6,0-293.9-164.6-293.9-323.9C4537.7,1520.6,4646.5,1358.6,4836,1358.6z"/>
<path class="st1" d="M5662.4,1362.2v628.5h-62v-293.9h-372.6v293.9h-61v-628.5h61v279.7h372.6v-279.7L5662.4,1362.2L5662.4,1362.2z"
	/>
<path class="st1" d="M6226.6,1935.7v54.9h-422.2v-628.4h414.3v54.9h-353.2v226.6h308.1v52.2h-308.1v239.9L6226.6,1935.7
	L6226.6,1935.7z"/>
<path class="st0" d="M2965.1,2123.7c7.4,2.2,14,5.2,19.5,8.9l-6.5,14.2c-5.7-3.8-11.7-6.6-18.2-8.4c-6.4-1.8-12.6-2.8-18.4-2.8
	c-8.6,0-15.4,1.5-20.5,4.6c-5.1,3.1-7.7,7.4-7.7,13c0,4.8,1.4,8.8,4.3,12s6.4,5.6,10.7,7.4c4.3,1.8,10.1,3.8,17.6,6
	c9.1,2.9,16.4,5.6,21.9,8.1c5.5,2.5,10.3,6.2,14.2,11.2c3.9,4.9,5.9,11.5,5.9,19.5c0,7.4-2,13.7-6,19.3c-4,5.5-9.6,9.8-16.9,12.8
	c-7.3,3-15.7,4.5-25.2,4.5s-18.7-1.8-27.7-5.5s-16.6-8.6-23.1-14.7l6.7-13.6c6,5.9,13,10.5,21,13.8c7.9,3.3,15.6,4.9,23.2,4.9
	c9.6,0,17.2-1.9,22.7-5.6c5.5-3.7,8.3-8.8,8.3-15.1c0-4.9-1.4-9-4.3-12.2c-2.9-3.2-6.5-5.7-10.8-7.5c-4.3-1.8-10.1-3.8-17.6-6
	c-8.9-2.6-16.2-5.2-21.8-7.7s-10.3-6.1-14.2-11c-3.8-4.9-5.8-11.3-5.8-19.3c0-6.9,1.9-12.9,5.7-18s9.2-9.2,16.1-12
	c7-2.8,15-4.3,24.1-4.3C2950.1,2120.4,2957.6,2121.5,2965.1,2123.7z"/>
<path class="st0" d="M3161.9,2129.5c10.6,5.9,19,14,25.2,24.2c6.2,10.2,9.3,21.4,9.3,33.6c0,12.3-3.1,23.6-9.3,33.8
	c-6.2,10.3-14.6,18.3-25.2,24.3c-10.6,6-22.2,9-34.8,9c-12.8,0-24.4-3-35.1-9c-10.6-6-19-14.1-25.2-24.3
	c-6.2-10.3-9.3-21.5-9.3-33.8c0-12.3,3.1-23.5,9.3-33.7c6.2-10.2,14.6-18.3,25.2-24.1c10.6-5.9,22.3-8.8,35.1-8.8
	C3139.7,2120.6,3151.3,2123.5,3161.9,2129.5z M3100.1,2142.1c-8.3,4.7-14.9,11-19.8,19s-7.4,16.7-7.4,26.3c0,9.6,2.5,18.5,7.4,26.5
	c4.9,8,11.5,14.4,19.8,19c8.3,4.7,17.3,7,27,7c9.8,0,18.7-2.3,26.9-7c8.2-4.7,14.7-11,19.6-19c4.9-8,7.3-16.8,7.3-26.5
	c0-9.6-2.5-18.4-7.3-26.3c-4.9-7.9-11.4-14.2-19.6-18.9c-8.2-4.7-17.1-7.1-26.8-7.1C3117.4,2135,3108.4,2137.3,3100.1,2142.1z"/>
<path class="st0" d="M3292,2135.6v46.6h62v14.6h-62v56.8h-15.2V2121h84.3v14.6H3292L3292,2135.6z"/>
<path class="st0" d="M3484.2,2135.6v118.1H3469v-118.1h-43.1V2121h101.7v14.6H3484.2z"/>
<path class="st0" d="M3723.7,2253.6l-35.8-111.8l-36.3,111.8h-15.4l-44.4-132.7h16.3l36.5,115.1l36-114.9l15.2-0.2l36.4,115.1
	l36-115.1h15.8l-44.5,132.7H3723.7z"/>
<path class="st0" d="M3859.5,2220.1l-14.8,33.5h-16.1L3888,2121h15.8l59.3,132.7h-16.4l-14.8-33.5H3859.5z M3895.5,2138.2
	l-29.5,67.3h59.5L3895.5,2138.2z"/>
<path class="st0" d="M4095,2211.4c-3.8,0.3-6.7,0.4-8.9,0.4h-35.3v41.9h-15.1V2121h50.4c16.5,0,29.4,3.9,38.6,11.7
	c9.1,7.7,13.7,18.8,13.7,32.9c0,10.8-2.6,20-7.7,27.3c-5.1,7.3-12.5,12.6-22.1,15.8l31,45h-17.2L4095,2211.4z M4114,2189.2
	c6.5-5.3,9.8-13.1,9.8-23.3c0-10-3.3-17.6-9.8-22.7c-6.5-5.1-15.8-7.7-27.9-7.7h-35.3v61.6h35.3
	C4098.2,2197.2,4107.5,2194.5,4114,2189.2z"/>
<path class="st0" d="M4238.1,2135.6v43.6h66.9v14.6h-66.9v45.4h77.4v14.4h-92.5V2121h90v14.6H4238.1L4238.1,2135.6z"/>
<path class="st0" d="M4527.1,2135.6v46.6h62v14.6h-62v56.8h-15.2V2121h84.3v14.6H4527.1L4527.1,2135.6z"/>
<path class="st0" d="M4764.1,2129.5c10.6,5.9,19,14,25.2,24.2c6.2,10.2,9.3,21.4,9.3,33.6c0,12.3-3.1,23.6-9.3,33.8
	c-6.2,10.3-14.6,18.3-25.2,24.3c-10.6,6-22.2,9-34.8,9c-12.8,0-24.4-3-35.1-9c-10.6-6-19-14.1-25.2-24.3
	c-6.2-10.3-9.3-21.5-9.3-33.8c0-12.3,3.1-23.5,9.3-33.7c6.2-10.2,14.6-18.3,25.2-24.1c10.6-5.9,22.3-8.8,35.1-8.8
	C4742,2120.6,4753.6,2123.5,4764.1,2129.5z M4702.3,2142.1c-8.3,4.7-14.9,11-19.8,19c-4.9,7.9-7.4,16.7-7.4,26.3
	c0,9.6,2.5,18.5,7.4,26.5c4.9,8,11.5,14.4,19.8,19c8.3,4.7,17.3,7,27,7c9.8,0,18.7-2.3,26.9-7c8.2-4.7,14.7-11,19.6-19
	c4.9-8,7.3-16.8,7.3-26.5c0-9.6-2.5-18.4-7.3-26.3c-4.9-7.9-11.4-14.2-19.6-18.9c-8.2-4.7-17.1-7.1-26.8-7.1
	C4719.6,2135,4710.6,2137.3,4702.3,2142.1z"/>
<path class="st0" d="M4972.9,2239.7c-9.9,9.8-23.5,14.7-40.8,14.7c-17.5,0-31.1-4.9-41-14.7c-9.9-9.8-14.9-23.3-14.9-40.7v-78.1
	h15.2v78.1c0,12.8,3.7,22.7,10.9,29.9c7.3,7.2,17.2,10.8,29.8,10.8c12.7,0,22.6-3.6,29.7-10.7c7.2-7.1,10.7-17.1,10.7-30.1v-78.1
	h15.2v78.1C4987.7,2216.4,4982.8,2229.9,4972.9,2239.7z"/>
<path class="st0" d="M5171.3,2253.6l-79.6-106.5v106.5h-15.2V2121h15.8l79.6,106.7V2121h15v132.7H5171.3z"/>
<path class="st0" d="M5365.9,2129.7c10.3,5.9,18.5,13.8,24.5,23.9c6,10.1,9,21.4,9,33.7c0,12.3-3,23.7-9,33.8
	c-6,10.1-14.2,18.1-24.8,23.9c-10.5,5.8-22.2,8.7-35,8.7h-53.1V2121h53.7C5344,2121,5355.5,2123.9,5365.9,2129.7z M5292.7,2239.2
	h38.7c9.8,0,18.6-2.2,26.6-6.7c8-4.5,14.4-10.6,19-18.6c4.7-7.9,7-16.7,7-26.5c0-9.8-2.4-18.5-7.1-26.4s-11.2-14-19.3-18.6
	c-8.1-4.5-17-6.9-26.8-6.9h-38.1V2239.2z"/>
<path class="st0" d="M5485.7,2220.1l-14.8,33.5h-16.1l59.5-132.7h15.8l59.3,132.7h-16.4l-14.8-33.5H5485.7z M5521.7,2138.2
	l-29.5,67.3h59.5L5521.7,2138.2z"/>
<path class="st0" d="M5688.8,2135.6v118.1h-15.1v-118.1h-43.1V2121h101.7v14.6H5688.8z"/>
<path class="st0" d="M5805.3,2253.6V2121h15.2v132.7H5805.3z"/>
<path class="st0" d="M6005.5,2129.5c10.6,5.9,19,14,25.2,24.2c6.2,10.2,9.3,21.4,9.3,33.6c0,12.3-3.1,23.6-9.3,33.8
	c-6.2,10.3-14.6,18.3-25.2,24.3c-10.6,6-22.2,9-34.8,9c-12.8,0-24.4-3-35.1-9c-10.6-6-19-14.1-25.2-24.3
	c-6.2-10.3-9.3-21.5-9.3-33.8c0-12.3,3.1-23.5,9.3-33.7c6.2-10.2,14.6-18.3,25.2-24.1c10.6-5.9,22.3-8.8,35.1-8.8
	C5983.3,2120.6,5994.9,2123.5,6005.5,2129.5z M5943.7,2142.1c-8.3,4.7-14.9,11-19.8,19s-7.4,16.7-7.4,26.3c0,9.6,2.5,18.5,7.4,26.5
	c4.9,8,11.5,14.4,19.8,19c8.3,4.7,17.3,7,27,7c9.8,0,18.7-2.3,26.9-7c8.2-4.7,14.7-11,19.6-19c4.9-8,7.3-16.8,7.3-26.5
	c0-9.6-2.5-18.4-7.3-26.3c-4.9-7.9-11.4-14.2-19.6-18.9c-8.2-4.7-17.1-7.1-26.8-7.1C5961,2135,5952,2137.3,5943.7,2142.1z"/>
<path class="st0" d="M6215.2,2253.6l-79.6-106.5v106.5h-15.2V2121h15.8l79.6,106.7V2121h15v132.7H6215.2z"/>
<linearGradient id="SVGID_1_" gradientUnits="userSpaceOnUse" x1="-1070.5962" y1="6859.3335" x2="-813.4276" y2="6558.6196" gradientTransform="matrix(0.4226 -0.9063 -0.9063 -0.4226 9296.1924 2906.551)">
	<stop  offset="0" style="stop-color:#F69923"/>
	<stop  offset="0.3123" style="stop-color:#F79A23"/>
	<stop  offset="0.8383" style="stop-color:#E97826"/>
</linearGradient>
<path class="st2" d="M2715.7,832.3c-28.5,16.9-76,64.6-132.6,133.7l52,98.2c36.5-52.2,73.6-99.2,111.1-139.4
	c2.9-3.2,4.4-4.7,4.4-4.7c-1.4,1.6-2.9,3.1-4.4,4.7c-12.1,13.4-48.8,56.2-104.3,141.4c53.4-2.6,135.4-13.6,202.3-25
	c19.9-111.5-19.5-162.5-19.5-162.5S2774.5,797.6,2715.7,832.3z"/>
<path class="st3" d="M2601.3,1392.6c0.4-0.1,0.8-0.1,1.1-0.2l-7.5,0.8c-0.4,0.2-0.9,0.4-1.3,0.6
	C2596.2,1393.4,2598.8,1393,2601.3,1392.6z"/>
<path class="st3" d="M2574.4,1568.5c-4.2,0.9-8.6,1.7-13,2.3C2565.9,1570.2,2570.2,1569.5,2574.4,1568.5z"/>
<path class="st3" d="M2213.4,1963.2c0.6-1.4,1.1-3,1.6-4.4c11.5-30.2,22.8-59.7,34-88.3c12.6-32.1,25.1-63.3,37.4-93.4
	c13-31.8,25.8-62.5,38.4-92.2c13.2-31.1,26.3-61.1,39.1-90c10.4-23.5,20.7-46.2,30.8-68.2c3.4-7.4,6.7-14.6,10.1-21.8
	c6.6-14.3,13.2-28.2,19.7-41.9c6-12.6,12-24.9,17.8-37c2-4,3.9-8.1,5.9-12c0.3-0.6,0.6-1.3,0.9-2l-6.4,0.7l-5-10c-0.5,1-1,2-1.5,2.9
	c-9.1,18.1-18.2,36.5-27.2,54.9c-5.2,10.6-10.3,21.4-15.5,32.1c-14.2,29.9-28.2,60-42,90.3c-13.9,30.6-27.5,61.4-40.9,92.3
	c-13.1,30.3-26,60.6-38.6,90.8c-12.6,30.2-24.9,60.3-36.9,90.2c-12.5,31.2-24.7,62.2-36.5,92.7c-2.6,6.9-5.4,13.8-8,20.7
	c-9.4,24.7-18.7,49-27.7,73.1l8,15.8l7.2-0.8c0.3-0.7,0.5-1.4,0.8-2.1C2190.6,2024.1,2202.1,1993.2,2213.4,1963.2z"/>
<path class="st3" d="M2558.1,1571.3L2558.1,1571.3C2558.2,1571.3,2558.2,1571.3,2558.1,1571.3
	C2558.2,1571.3,2558.2,1571.3,2558.1,1571.3z"/>
<path class="st4" d="M2540.9,1657.1c-6.7,1.2-13.5,2.4-20.5,3.6c-0.1,0-0.1,0.1-0.1,0.1c3.5-0.5,7.1-1.1,10.5-1.6
	C2534.2,1658.5,2537.5,1657.8,2540.9,1657.1z"/>
<path class="st5" d="M2540.9,1657.1c-6.7,1.2-13.5,2.4-20.5,3.6c-0.1,0-0.1,0.1-0.1,0.1c3.5-0.5,7.1-1.1,10.5-1.6
	C2534.2,1658.5,2537.5,1657.8,2540.9,1657.1z"/>
<path class="st4" d="M2558.3,1571.3C2558.2,1571.3,2558.2,1571.3,2558.3,1571.3c-0.1,0.1-0.1,0.1-0.1,0.1c1.1-0.1,2.2-0.3,3.3-0.5
	c4.4-0.6,8.8-1.4,13-2.3C2569.1,1569.5,2563.8,1570.3,2558.3,1571.3L2558.3,1571.3L2558.3,1571.3z"/>
<path class="st5" d="M2558.3,1571.3C2558.2,1571.3,2558.2,1571.3,2558.3,1571.3c-0.1,0.1-0.1,0.1-0.1,0.1c1.1-0.1,2.2-0.3,3.3-0.5
	c4.4-0.6,8.8-1.4,13-2.3C2569.1,1569.5,2563.8,1570.3,2558.3,1571.3L2558.3,1571.3L2558.3,1571.3z"/>
<linearGradient id="SVGID_2_" gradientUnits="userSpaceOnUse" x1="-2973.9099" y1="6892.5581" x2="-1139.1484" y2="6892.5581" gradientTransform="matrix(0.4226 -0.9063 -0.9063 -0.4226 9296.1924 2906.551)">
	<stop  offset="0.3233" style="stop-color:#9E2064"/>
	<stop  offset="0.6302" style="stop-color:#C92037"/>
	<stop  offset="0.7514" style="stop-color:#CD2335"/>
	<stop  offset="1" style="stop-color:#E97826"/>
</linearGradient>
<path class="st6" d="M2481.6,1318c15.8-29.5,31.8-58.5,48-86.6c16.8-29.2,33.8-57.5,51-84.9c1-1.6,2-3.3,3-4.9
	c17-26.9,34.1-52.7,51.4-77.4l-52-98.3c-3.9,4.8-7.9,9.6-11.8,14.6c-15,18.7-30.6,38.8-46.6,60.2c-18,24.1-36.5,49.7-55.3,76.7
	c-17.4,24.9-35,51-52.6,77.9c-15,23-30.1,46.6-45,70.9c-0.6,0.9-1.1,1.8-1.6,2.7l67.7,133.7C2452.2,1374,2466.8,1345.7,2481.6,1318z
	"/>
<linearGradient id="SVGID_3_" gradientUnits="userSpaceOnUse" x1="-2752.4294" y1="6708.71" x2="-1659.0901" y2="6708.71" gradientTransform="matrix(0.4226 -0.9063 -0.9063 -0.4226 9296.1924 2906.551)">
	<stop  offset="0" style="stop-color:#282662"/>
	<stop  offset="9.548389e-02" style="stop-color:#662E8D"/>
	<stop  offset="0.7882" style="stop-color:#9F2064"/>
	<stop  offset="0.9487" style="stop-color:#CD2032"/>
</linearGradient>
<path class="st7" d="M2173.2,2071.7c-8.9,24.6-18,49.7-27,75.3c-0.1,0.4-0.3,0.8-0.4,1.1c-1.3,3.6-2.6,7.2-3.8,10.8
	c-6.1,17.3-11.3,32.8-23.5,68.2c20,9.1,36,33.1,51.1,60.2c-1.6-28.2-13.2-54.6-35.4-75c98.3,4.4,183.1-20.4,226.9-92.4
	c3.9-6.4,7.5-13.2,10.7-20.3c-19.9,25.3-44.6,36-91,33.4c-0.1,0.1-0.2,0.1-0.3,0.1c0.1-0.1,0.2-0.1,0.3-0.1
	c68.4-30.6,102.8-60,133.1-108.7c7.2-11.5,14.2-24.2,21.3-38.2c-59.8,61.4-129.1,78.9-202.2,65.6l-54.7,6
	C2176.6,2062.4,2174.9,2067,2173.2,2071.7z"/>
<linearGradient id="SVGID_4_" gradientUnits="userSpaceOnUse" x1="-2870.8601" y1="6909.6812" x2="-1036.0985" y2="6909.6812" gradientTransform="matrix(0.4226 -0.9063 -0.9063 -0.4226 9296.1924 2906.551)">
	<stop  offset="0.3233" style="stop-color:#9E2064"/>
	<stop  offset="0.6302" style="stop-color:#C92037"/>
	<stop  offset="0.7514" style="stop-color:#CD2335"/>
	<stop  offset="1" style="stop-color:#E97826"/>
</linearGradient>
<path class="st8" d="M2198.8,1949c11.8-30.6,24-61.6,36.5-92.7c12-29.9,24.3-60,36.9-90.2c12.6-30.2,25.5-60.5,38.6-90.8
	c13.4-30.9,27-61.6,40.9-92.3c13.7-30.3,27.7-60.4,42-90.3c5.1-10.8,10.3-21.5,15.5-32.1c8.9-18.5,18-36.8,27.2-54.9
	c0.5-1,1-2,1.5-2.9l-67.7-133.7c-1.1,1.8-2.2,3.7-3.3,5.4c-15.8,25.8-31.5,52.1-46.9,79c-15.6,27.2-30.9,54.9-45.8,83
	c-12.6,23.7-24.9,47.6-36.9,71.8c-2.4,4.9-4.8,9.8-7.1,14.6c-14.7,30.4-28.1,59.7-40.1,87.9c-13.7,31.9-25.6,62.5-36.2,91.4
	c-6.9,19-13.2,37.4-19,55.1c-4.7,15.1-9.3,30.2-13.5,45.2c-10.1,35.5-18.8,70.8-26,106l68,134.4c9-24,18.2-48.4,27.7-73.1
	C2193.4,1962.8,2196.1,1956,2198.8,1949z"/>
<linearGradient id="SVGID_5_" gradientUnits="userSpaceOnUse" x1="-2737.0491" y1="6884.8408" x2="-1772.8265" y2="6884.8408" gradientTransform="matrix(0.4226 -0.9063 -0.9063 -0.4226 9296.1924 2906.551)">
	<stop  offset="0" style="stop-color:#282662"/>
	<stop  offset="9.548389e-02" style="stop-color:#662E8D"/>
	<stop  offset="0.7882" style="stop-color:#9F2064"/>
	<stop  offset="0.9487" style="stop-color:#CD2032"/>
</linearGradient>
<path class="st9" d="M2094.1,1913.2c-8.6,43-14.6,85.8-17.6,128.4c-0.1,1.5-0.3,3-0.3,4.5c-21.2-34-78.1-67.3-78-66.9
	c40.7,59,71.6,117.6,76.2,175.1c-21.8,4.5-51.7-2-86.2-14.7c36,33.1,63,42.2,73.5,44.7c-33.1,2.1-67.5,24.8-102.1,50.9
	c50.7-20.7,91.7-28.9,121-22.2c-46.6,131.7-93.2,277.1-139.9,431.4c14.3-4.2,22.8-13.8,27.7-26.8c8.3-28,63.5-211.4,149.9-452.5
	c2.5-6.9,4.9-13.7,7.4-20.7c0.7-1.9,1.4-3.8,2.1-5.8c9.1-25.3,18.6-51.1,28.4-77.4c2.2-6,4.5-12,6.7-18c0.1-0.1,0.1-0.3,0.1-0.4
	l-68-134.3C2094.8,1910,2094.4,1911.6,2094.1,1913.2z"/>
<linearGradient id="SVGID_6_" gradientUnits="userSpaceOnUse" x1="-2870.8601" y1="6719.8081" x2="-1036.0985" y2="6719.8081" gradientTransform="matrix(0.4226 -0.9063 -0.9063 -0.4226 9296.1924 2906.551)">
	<stop  offset="0.3233" style="stop-color:#9E2064"/>
	<stop  offset="0.6302" style="stop-color:#C92037"/>
	<stop  offset="0.7514" style="stop-color:#CD2335"/>
	<stop  offset="1" style="stop-color:#E97826"/>
</linearGradient>
<path class="st10" d="M2448.2,1414c-2,4-3.9,8-5.9,12c-5.9,12.1-11.8,24.4-17.8,37c-6.5,13.7-13,27.7-19.7,41.9
	c-3.3,7.2-6.7,14.4-10.1,21.8c-10.1,22.1-20.4,44.8-30.8,68.2c-12.8,28.9-25.8,58.8-39.1,90c-12.6,29.7-25.4,60.4-38.4,92.2
	c-12.3,30.2-24.8,61.3-37.4,93.4c-11.2,28.6-22.6,58-34,88.3c-0.6,1.4-1.1,3-1.6,4.4c-11.3,30-22.8,60.9-34.4,92.5
	c-0.3,0.7-0.5,1.4-0.8,2.1l54.7-6c-1.1-0.2-2.2-0.3-3.3-0.6c65.5-8.2,152.5-57.1,208.8-117.5c25.9-27.8,49.5-60.7,71.2-99.1
	c16.2-28.6,31.4-60.4,45.9-95.4c12.7-30.7,24.8-63.9,36.5-99.9c-15.1,7.9-32.3,13.7-51.3,17.8c-3.3,0.7-6.7,1.4-10.1,2
	c-3.5,0.6-6.9,1.1-10.5,1.6l0,0l0,0c0.1,0,0.1-0.1,0.1-0.1c61-23.5,99.5-68.8,127.5-124.4c-16.1,11-42.1,25.3-73.5,32.2
	c-4.2,0.9-8.6,1.7-13,2.3c-1.1,0.2-2.2,0.4-3.3,0.5l0,0l0,0c0.1,0,0.1,0,0.1-0.1h0.1l0,0c21.2-8.9,39.1-18.8,54.6-30.5
	c3.3-2.5,6.6-5.1,9.6-7.7c4.7-4.1,9.3-8.4,13.5-12.9c2.8-2.9,5.4-5.9,8-8.9c6-7.2,11.8-15.1,17.1-23.5c1.6-2.6,3.2-5.2,4.8-7.9
	c2-3.9,4-7.7,5.9-11.5c8.5-17.1,15.4-32.4,20.8-45.9c2.7-6.7,5.1-12.9,7.1-18.7c0.8-2.3,1.6-4.5,2.3-6.7c2.1-6.4,3.9-12.2,5.3-17.2
	c2.1-7.6,3.3-13.5,4-17.9l0,0l0,0c-2.1,1.6-4.5,3.3-7.1,4.9c-18.5,11-50.1,21-75.5,25.7l50.3-5.5l-50.3,5.5
	c-0.4,0.1-0.8,0.1-1.1,0.2c-2.5,0.4-5.1,0.8-7.7,1.3c0.4-0.2,0.9-0.4,1.3-0.6l-172,18.8C2448.9,1412.7,2448.6,1413.3,2448.2,1414z"
	/>
<linearGradient id="SVGID_7_" gradientUnits="userSpaceOnUse" x1="-2984.6763" y1="6729.2783" x2="-1149.9147" y2="6729.2783" gradientTransform="matrix(0.4226 -0.9063 -0.9063 -0.4226 9296.1924 2906.551)">
	<stop  offset="0.3233" style="stop-color:#9E2064"/>
	<stop  offset="0.6302" style="stop-color:#C92037"/>
	<stop  offset="0.7514" style="stop-color:#CD2335"/>
	<stop  offset="1" style="stop-color:#E97826"/>
</linearGradient>
<path class="st11" d="M2641.8,1066.3c-15.3,23.5-32,50.1-50,80.3c-0.9,1.6-1.9,3.2-2.8,4.8c-15.5,26.1-32,54.9-49.3,86.3
	c-15,27.2-30.6,56.3-46.8,87.6c-14.1,27.3-28.7,56.2-43.7,86.8l172-18.8c50.1-23.1,72.5-43.9,94.2-74.1c5.8-8.3,11.6-17,17.3-26
	c17.6-27.6,35-58,50.5-88.1c14.9-29.2,28.2-58.1,38.2-84.1c6.4-16.6,11.6-32,15.2-45.5c3.1-12,5.6-23.2,7.5-34.1
	C2777.3,1052.7,2695.2,1063.6,2641.8,1066.3z"/>
<path class="st4" d="M2530.7,1659.1c-3.5,0.6-6.9,1.1-10.5,1.6l0,0C2523.8,1660.3,2527.2,1659.7,2530.7,1659.1z"/>
<path class="st5" d="M2530.7,1659.1c-3.5,0.6-6.9,1.1-10.5,1.6l0,0C2523.8,1660.3,2527.2,1659.7,2530.7,1659.1z"/>
<linearGradient id="SVGID_8_" gradientUnits="userSpaceOnUse" x1="-2870.8601" y1="6663.3169" x2="-1036.0988" y2="6663.3169" gradientTransform="matrix(0.4226 -0.9063 -0.9063 -0.4226 9296.1924 2906.551)">
	<stop  offset="0.3233" style="stop-color:#9E2064"/>
	<stop  offset="0.6302" style="stop-color:#C92037"/>
	<stop  offset="0.7514" style="stop-color:#CD2335"/>
	<stop  offset="1" style="stop-color:#E97826"/>
</linearGradient>
<path class="st12" d="M2530.7,1659.1c-3.5,0.6-6.9,1.1-10.5,1.6l0,0C2523.8,1660.3,2527.2,1659.7,2530.7,1659.1z"/>
<path class="st4" d="M2558.1,1571.3c1.1-0.1,2.2-0.3,3.3-0.5C2560.3,1571,2559.3,1571.2,2558.1,1571.3L2558.1,1571.3z"/>
<path class="st5" d="M2558.1,1571.3c1.1-0.1,2.2-0.3,3.3-0.5C2560.3,1571,2559.3,1571.2,2558.1,1571.3L2558.1,1571.3z"/>
<linearGradient id="SVGID_9_" gradientUnits="userSpaceOnUse" x1="-2870.8601" y1="6669.7959" x2="-1036.0988" y2="6669.7959" gradientTransform="matrix(0.4226 -0.9063 -0.9063 -0.4226 9296.1924 2906.551)">
	<stop  offset="0.3233" style="stop-color:#9E2064"/>
	<stop  offset="0.6302" style="stop-color:#C92037"/>
	<stop  offset="0.7514" style="stop-color:#CD2335"/>
	<stop  offset="1" style="stop-color:#E97826"/>
</linearGradient>
<path class="st13" d="M2558.1,1571.3c1.1-0.1,2.2-0.3,3.3-0.5C2560.3,1571,2559.3,1571.2,2558.1,1571.3L2558.1,1571.3z"/>
<path class="st4" d="M2558.2,1571.3L2558.2,1571.3L2558.2,1571.3L2558.2,1571.3L2558.2,1571.3L2558.2,1571.3z"/>
<path class="st5" d="M2558.2,1571.3L2558.2,1571.3L2558.2,1571.3L2558.2,1571.3L2558.2,1571.3L2558.2,1571.3z"/>
<linearGradient id="SVGID_10_" gradientUnits="userSpaceOnUse" x1="-1637.348" y1="6671.0864" x2="-1637.348" y2="6671.0864" gradientTransform="matrix(0.4226 -0.9063 -0.9063 -0.4226 9296.1924 2906.551)">
	<stop  offset="0.3233" style="stop-color:#9E2064"/>
	<stop  offset="0.6302" style="stop-color:#C92037"/>
	<stop  offset="0.7514" style="stop-color:#CD2335"/>
	<stop  offset="1" style="stop-color:#E97826"/>
</linearGradient>
<path class="st14" d="M2558.2,1571.3L2558.2,1571.3L2558.2,1571.3L2558.2,1571.3L2558.2,1571.3L2558.2,1571.3z"/>
</svg>
