<?xml version="1.0" encoding="utf-8"?>
<!-- Generator: Adobe Illustrator 24.0.0, SVG Export Plug-In . SVG Version: 6.00 Build 0)  -->
<svg version="1.1" id="图层_1" xmlns="http://www.w3.org/2000/svg" xmlns:xlink="http://www.w3.org/1999/xlink" x="0px" y="0px"
	 viewBox="0 0 450 390" style="enable-background:new 0 0 450 390;" xml:space="preserve">
<style type="text/css">
	.st0{fill:#0095D3;}
</style>
<path class="st0" d="M174.6,311.6c1.6-3.1,2.6-6.3,2.6-10c0-6.8-3.2-12.6-8.9-16.3c-3.2-2.1-6.3-3.1-10-3.1
	c-7.9,0-13.6,4.2-17.3,11.5c-1.1,2.6-1.6,5.3-1.6,7.9c0,7.4,3.7,13.1,9.4,16.8c2.6,1.6,6.3,2.6,9.4,2.6
	C165.7,321.5,170.9,317.9,174.6,311.6 M158.8,272.7c11,0,19.4,5.3,24.7,15.8c2.1,3.7,3.2,8.4,3.2,12.6v2.1c0,11-5.3,19.4-14.2,24.7
	c-4.2,2.6-8.9,3.7-13.7,3.7h-2.1c-10.5,0-18.4-5.3-23.6-14.7c-2.6-4.2-3.7-8.9-3.7-14.2v-2.1c0-10.5,5.3-18.9,14.2-24.7
	c4.2-2.6,8.9-3.7,13.6-3.7L158.8,272.7 M236,276.9l0.5,0.5c0.5,0.5,1.1,1.6,1.1,2.6v1c0,2.6-2.1,3.7-4.2,4.2h-0.5
	c-1.6,0-4.7-1.6-5.8-2.1c-1.6-0.5-4.2-1-5.8-1c-7.9-0.5-13.7,4.2-17.3,11.5c-1.1,2.6-1.6,5.3-1.6,7.9c0,8.4,4.2,14.2,11.6,17.9
	c2.6,1.6,5.8,1.6,8.9,1.6c2.6,0,6.3-1.6,8.4-2.6l0.5-0.5h1.6c2.1,0.5,4.2,1.6,4.2,4.2v1c0,5.8-10.5,7.4-14.7,7.9
	c-14.2,1.1-25.2-6.8-28.9-21.5c-0.5-2.6-1.1-4.7-1.1-7.4V300c0-10.5,5.3-18.9,14.2-24.7c4.2-2.6,8.9-3.7,13.6-3.7h2.1
	C227.1,272.2,231.8,273.8,236,276.9 M120,254.3c2.6,0,4.2,2.1,4.2,4.7v43.6c0,11-5.3,19.4-14.2,24.7c-3.7,2.6-8.4,4.2-13.1,4.2h-2.1
	c-10.5,0-18.4-5.3-23.6-14.7c-2.6-4.2-3.7-8.9-3.7-14.2v-2.1c0-10.5,5.3-18.9,14.2-24.7c4.2-2.6,8.9-3.7,13.7-3.7h2.1
	c6.8,0,13.1,2.6,17.8,7.4v-21c0-2.6,1.6-4.7,4.2-4.7L120,254.3 M112.1,311.6c2.1-3.1,2.6-6.3,2.6-10c0-6.8-3.2-12.1-8.4-15.8
	c-3.2-2.6-6.8-3.7-10.5-3.7c-7.9,0-13.7,4.2-17.3,11.6c-1.1,2.6-1.6,5.3-1.6,7.9c0,7.9,3.7,13.6,10,17.3c2.6,1.6,5.8,2.1,8.4,2.1
	C103.2,321.5,108.5,317.9,112.1,311.6 M377.8,272.7c2.6,0,4.7,2.1,4.7,4.7c0,4.2-3.7,5.3-6.8,5.3c-4.2,0-8.4,2.6-11.6,5.8
	c-3.7,3.7-5.3,8.4-5.3,13.6v24.1c0,2.6-1.6,4.7-4.7,4.7h-0.5c-2.6,0-4.7-2.1-4.7-4.7V301c0-9.4,4.7-17.3,12.1-23.1
	c4.7-3.1,10-5.3,15.2-5.3L377.8,272.7 M379.4,129.9c-7.9,16.3-24.7,21-41,19.9c-24.7,63-77.7,92.4-142.3,92.4
	c-33.1,0-63.5-12.6-81.4-43.1l-0.5-0.5l-2.6-5.3c-5.8-13.7-7.9-28.4-6.3-43.1l0.5-4.2h24.7v-29.9h28.3V87.4H215V58.5h34.1v58.3h28.3
	v29.9h14.2c6.3,0,13.6-1.1,19.4-3.2c3.1-1,6.3-2.6,9.5-4.2c-4.2-5.3-5.8-12.1-6.3-18.9c-1-8.9,1.1-21,6.8-27.8l3.1-3.7l3.7,3.2
	c8.9,7.3,16.3,17.8,17.9,29.4c10.5-3.2,23.1-2.6,32.6,3.2l3.7,2.1L379.4,129.9 M248.1,146.7h24.7v-25.2h-24.7L248.1,146.7
	 M219.8,88.4h24.7V63.2h-24.7V88.4 M244.4,117.8V92.6h-24.7v25.2H244.4 M244.4,146.7v-25.2h-24.7v25.2H244.4 M191.9,117.8h24.7V92.6
	h-24.7V117.8 M191.9,146.7h24.7v-25.2h-24.7V146.7 M196.7,238.1c2.6,0,5.3,0,7.9,0c-11.6-5.8-19.4-12.6-24.7-20.5
	c-2.1-2.6-3.7-6.3-5.3-9.4l-0.5-0.5c0-0.5,0-0.5-0.5-1.1c-1.6,0.5-3.2,1.1-4.7,1.1c-0.5,0-0.5,0-1.1,0c-4.2,1.1-8.4,1.6-13.1,2.1
	c-1.1,0-2.1,0-3.1,0c-3.2,0-6.8,0.5-10.5,0.5c-4.2,0-8.4,0-13.1-0.5C143.1,225.5,162,237.5,196.7,238.1 M135.2,146.7h24.7v-25.2
	h-24.7V146.7 M163.6,146.7h24.7v-25.2h-24.7V146.7 M193,194.5c0-3.7-3.1-6.8-6.8-6.8s-6.8,3.1-6.8,6.8s3.2,6.8,6.8,6.8
	C190.4,201.8,193,198.7,193,194.5 M181.4,194.5c0-2.6,2.1-4.7,4.7-4.7c0.5,0,1.1,0,1.6,0.5c-0.5,0.5-1.1,1.1-1.1,1.6
	c0,1.1,1.1,2.1,2.1,2.1c0.5,0,1.6-0.5,1.6-1.1c0,0.5,0.5,1.1,0.5,2.1c0,2.6-2.1,4.7-4.7,4.7S181.4,197.6,181.4,194.5 M163.6,117.8
	h24.7V92.6h-24.7V117.8 M339.4,286.4l0.5,1.1c2.1,3.1-0.5,6.3-3.1,8.4c-3.1,2.1-5.8,5.3-8.9,7.9c-6.3,5.8-12.6,11.5-18.9,16.8
	c3.7,1.1,7.4,1.1,11,0.5c2.1-1.1,6.3-3.1,8.4-2.6h0.5c1.1,0.5,2.1,1.1,2.6,2.1c1.1,2.6,0.5,5.3-2.1,6.8l-1,0.5
	c-8.9,5.3-18.4,4.7-27.8-0.5c-4.2-2.1-7.9-5.8-10-10.5l-0.5-1.1c-5.8-10.5-4.7-21.5,1.6-31c2.1-3.1,5.3-5.8,8.4-8.4l1.6-0.5
	c8.4-5.3,17.9-4.7,26.3-0.5C332.6,278,336.8,281.6,339.4,286.4 M322.1,295.3c2.6-2.1,4.7-4.2,7.4-6.3c-2.1-2.6-5.3-4.2-7.9-5.3
	c-5.3-2.1-11-1.6-15.8,1.6c-6.3,3.7-9.4,10.5-8.9,17.9c0,3.1,1,5.8,2.6,8.9c0.5,1.1,1,1.6,2.1,2.6
	C307.4,307.9,314.8,301.6,322.1,295.3 M277.5,272.7c2.1,0.5,4.2,2.1,4.2,4.2v1c0,1.6-2.1,3.7-3.1,4.7c-2.1,2.1-4.7,4.7-6.8,6.8
	l-11.5,12.1l14.7,15.2c1.6,1.6,2.6,2.6,4.2,4.2c0.5,0.5,1.1,1,1.6,1.6s0.5,1.6,0.5,2.1v1.1v0.5c-0.5,2.1-2.1,4.2-4.2,4.2h-0.5
	c-1.6,0-3.7-2.1-4.7-3.1c-2.1-2.1-4.7-4.2-6.8-6.3l-7.4-7.4v12.6c0,2.6-1.6,4.7-4.7,4.7h-0.5c-2.6,0-4.7-2.1-4.7-4.7V259
	c0-2.6,1.6-4.7,4.7-4.7h0.5c2.6,0,4.7,2.1,4.7,4.7v30.5c3.7-3.7,7.4-7.9,11-11.6c1-1,4.7-5.3,6.3-5.3L277.5,272.7"/>
</svg>
