<svg width="74" height="69" viewBox="0 0 74 69" fill="none" xmlns="http://www.w3.org/2000/svg">
<g clip-path="url(#clip0)">
<path fill-rule="evenodd" clip-rule="evenodd" d="M73.8617 39.4521L69.7209 26.5527L61.5146 0.98682C61.0925 -0.328452 59.2541 -0.328452 58.8318 0.98682L50.6252 26.5527H23.3747L15.168 0.98682C14.7459 -0.328452 12.9075 -0.328452 12.4852 0.98682L4.27885 26.5527L0.138336 39.4521C-0.239496 40.6287 0.174396 41.9176 1.16305 42.6448L36.9999 69.0003L72.8369 42.6448C73.8256 41.9176 74.2393 40.6287 73.8617 39.4521Z" fill="#FC6D26"/>
<path fill-rule="evenodd" clip-rule="evenodd" d="M37.0004 69L50.6257 26.5524H23.375L37.0004 69Z" fill="#E24329"/>
<path fill-rule="evenodd" clip-rule="evenodd" d="M37.0003 68.9999L23.375 26.5525H4.2793L37.0003 68.9999Z" fill="#FC6D26"/>
<path fill-rule="evenodd" clip-rule="evenodd" d="M4.27896 26.5525L0.138249 39.4519C-0.239382 40.6285 0.174309 41.9174 1.16316 42.6444L37 68.9999L4.27896 26.5525Z" fill="#FCA326"/>
<path fill-rule="evenodd" clip-rule="evenodd" d="M4.2793 26.5525H23.375L15.1685 0.986605C14.7462 -0.328868 12.9077 -0.328868 12.4856 0.986605L4.2793 26.5525Z" fill="#E24329"/>
<path fill-rule="evenodd" clip-rule="evenodd" d="M37 68.9999L50.6254 26.5525H69.721L37 68.9999Z" fill="#FC6D26"/>
<path fill-rule="evenodd" clip-rule="evenodd" d="M69.7211 26.5525L73.8618 39.4519C74.2394 40.6285 73.8257 41.9174 72.8369 42.6444L37 68.9999L69.7211 26.5525Z" fill="#FCA326"/>
<path fill-rule="evenodd" clip-rule="evenodd" d="M69.7207 26.5525H50.625L58.8315 0.986605C59.2538 -0.328868 61.0923 -0.328868 61.5144 0.986605L69.7207 26.5525Z" fill="#E24329"/>
</g>
<defs>
<clipPath id="clip0">
<rect width="74" height="69" fill="white"/>
</clipPath>
</defs>
</svg>
