<?xml version="1.0" encoding="utf-8"?>
<!-- Generator: Adobe Illustrator 24.0.0, SVG Export Plug-In . SVG Version: 6.00 Build 0)  -->
<svg version="1.1" id="Layer_1" xmlns="http://www.w3.org/2000/svg" xmlns:xlink="http://www.w3.org/1999/xlink" x="0px" y="0px"
	 viewBox="0 0 699.7 275.2" style="enable-background:new 0 0 699.7 275.2;" xml:space="preserve">
<style type="text/css">
	.st0{fill:#C8E8EB;}
	.st1{fill:#FFFFFF;}
	.st2{fill:#466BB2;}
	.st3{fill:#1FBDCE;}
	.st4{fill:#414141;}
	.st5{fill:#FCFDFF;}
	.st6{fill:#D9EFF1;}
	.st7{fill:#316CE6;}
	.st8{fill:#316CE6;stroke:#FFFFFF;stroke-width:0.8929;stroke-miterlimit:10;}
</style>
<title>kubernetes_icons</title>
<circle class="st0" cx="474.6" cy="138.1" r="48.4"/>
<rect x="450" y="104.1" class="st1" width="49.2" height="47.4"/>
<rect x="456.5" y="110.4" class="st2" width="16.7" height="16"/>
<rect x="476.1" y="110.4" class="st3" width="16.7" height="16"/>
<rect x="456.5" y="129.3" class="st4" width="36.2" height="16"/>
<path class="st2" d="M456.5,158.8h2.1l4.9,6.5v-6.5h2.2v10.5h-2l-5-6.7v6.6h-2.2V158.8L456.5,158.8z"/>
<path class="st2" d="M467.6,165.2L467.6,165.2c0.1-2.5,2-4.2,4.5-4.2c2.2,0.1,4,1.9,4.1,4.1l0,0c-0.1,2.5-2,4.2-4.5,4.1
	C469.5,169.2,467.7,167.4,467.6,165.2z M474.1,165.2L474.1,165.2c0.1-1.2-0.9-2.1-2-2.2h-0.1c-1.1,0-2,0.9-2,2c0,0.1,0,0.1,0,0.2
	l0,0c-0.1,1.2,0.9,2.1,2,2.2h0.1c1.1,0,2-0.9,2-2C474.1,165.3,474.1,165.3,474.1,165.2z"/>
<path class="st2" d="M477.5,165.2L477.5,165.2c0-2.7,1.7-4.1,3.6-4.1c0.9,0,1.9,0.4,2.5,1.2v-3.9h2.2v10.9h-2.2v-1.1
	c-0.6,0.9-1.4,1.3-2.5,1.3C479.3,169.3,477.5,167.8,477.5,165.2z M483.6,165.2L483.6,165.2c0.2-1.1-0.6-2-1.7-2.2s-2,0.6-2.2,1.7
	c0,0.2,0,0.3,0,0.6l0,0c-0.2,1.1,0.6,2,1.7,2.2c1.1,0.2,2-0.6,2.2-1.7C483.6,165.5,483.6,165.4,483.6,165.2z"/>
<path class="st2" d="M487.4,165.2L487.4,165.2c-0.1-2.2,1.7-4.1,3.8-4.2c0.1,0,0.1,0,0.2,0c2.7,0,3.9,2,3.9,4.3c0,0.2,0,0.4,0,0.6
	h-5.6c0.2,0.9,1,1.7,2,1.6c0.8,0,1.4-0.2,2-0.9l1.3,1.1c-1.6,1.8-4.2,2-5.9,0.6C488.1,167.6,487.5,166.4,487.4,165.2L487.4,165.2z
	 M493.1,164.5c0-0.9-0.8-1.7-1.7-1.7c-0.9,0-1.7,0.8-1.7,1.7H493.1z"/>
<path class="st0" d="M260.4,123.2c-14.8,0-26.8-12-26.8-26.8s12-26.8,26.8-26.8c14.8,0,26.8,12,26.8,26.8
	C287.3,111.2,275.3,123.2,260.4,123.2z M260.4,71.8c-13.6,0-24.6,11-24.6,24.6s11,24.6,24.6,24.6c13.6,0,24.6-11,24.6-24.6l0,0
	C285.1,82.8,274,71.8,260.4,71.8L260.4,71.8z"/>
<rect x="252.5" y="86.4" class="st4" width="24.5" height="10.6"/>
<path class="st5" d="M277.4,97.4h-25.3V86.1h25.3V97.4z M252.9,96.7h23.8v-9.8h-23.8V96.7z"/>
<rect x="250.3" y="89" class="st4" width="24.5" height="10.6"/>
<path class="st5" d="M275.1,100h-25.3V88.6h25.3V100z M250.6,99.2h23.8v-9.9h-23.8V99.2z"/>
<rect x="247.2" y="91.5" class="st4" width="24.5" height="10.6"/>
<path class="st5" d="M272.1,102.4h-25.3V91.1h25.3V102.4z M247.6,101.8h23.8v-9.9h-23.8V101.8z"/>
<rect x="244.6" y="94" class="st4" width="24.5" height="10.6"/>
<path class="st5" d="M269.6,105h-25.3V93.7h25.3V105z M245,104.2h23.8v-9.8H245V104.2z"/>
<rect x="198.1" y="155.9" class="st2" width="17.3" height="17.3"/>
<path class="st5" d="M215.8,173.6h-18v-18h18C215.8,155.6,215.8,173.6,215.8,173.6z M198.5,172.8H215v-16.5h-16.5V172.8z"/>
<rect x="194.8" y="159.9" class="st2" width="17.3" height="17.3"/>
<path class="st5" d="M212.4,177.6h-18v-18h18C212.4,159.6,212.4,177.6,212.4,177.6z M195.2,176.8h16.5v-16.5h-16.5V176.8z"/>
<rect x="254.5" y="165.5" class="st3" width="17.3" height="17.3"/>
<path class="st1" d="M272.1,183.1h-17.9v-17.9h17.9V183.1z M254.9,182.4h16.5v-16.5h-16.5V182.4z"/>
<rect x="251.2" y="169.5" class="st3" width="17.3" height="17.3"/>
<path class="st1" d="M268.8,187.1h-17.9v-17.9h17.9V187.1z M251.5,186.4H268v-16.5h-16.5V186.4z"/>
<rect x="248.2" y="173.5" class="st3" width="17.3" height="17.3"/>
<path class="st1" d="M265.8,191.1h-17.9v-17.9h17.9V191.1z M248.5,190.4H265V174h-16.5V190.4z"/>
<rect x="194.2" y="94.7" class="st6" width="20.8" height="18.6"/>
<path class="st1" d="M215.3,113.7h-21.6V94.3h21.6V113.7z M194.5,112.8h20V95h-20V112.8z"/>
<rect x="191.6" y="97.2" class="st6" width="20.8" height="18.6"/>
<path class="st1" d="M212.8,116.1h-21.6V96.8h21.6V116.1z M192.1,115.4h20V97.7h-20V115.4z"/>
<circle class="st0" cx="286.4" cy="110" r="1.3"/>
<circle class="st0" cx="290.8" cy="110" r="1.3"/>
<circle class="st0" cx="295.3" cy="110" r="1.3"/>
<circle class="st0" cx="299.8" cy="110" r="1.3"/>
<circle class="st0" cx="304.3" cy="110" r="1.3"/>
<circle class="st0" cx="308.8" cy="110" r="1.3"/>
<circle class="st0" cx="313.2" cy="110" r="1.3"/>
<circle class="st0" cx="317.8" cy="110" r="1.3"/>
<circle class="st0" cx="322.3" cy="110" r="1.3"/>
<circle class="st0" cx="274.7" cy="130.4" r="1.3"/>
<circle class="st0" cx="270" cy="130.4" r="1.3"/>
<circle class="st0" cx="265.3" cy="130.4" r="1.3"/>
<circle class="st0" cx="260.7" cy="130.4" r="1.3"/>
<circle class="st0" cx="255.9" cy="130.4" r="1.3"/>
<circle class="st0" cx="251.3" cy="130.4" r="1.3"/>
<circle class="st0" cx="246.6" cy="130.4" r="1.3"/>
<circle class="st0" cx="241.8" cy="130.4" r="1.3"/>
<circle class="st0" cx="237.2" cy="130.4" r="1.3"/>
<circle class="st0" cx="232.5" cy="130.4" r="1.3"/>
<circle class="st0" cx="229.4" cy="127.2" r="1.3"/>
<circle class="st0" cx="225.7" cy="123.4" r="1.3"/>
<circle class="st0" cx="225.7" cy="150.2" r="1.3"/>
<circle class="st0" cx="228.9" cy="146.8" r="1.3"/>
<circle class="st0" cx="232.5" cy="143.5" r="1.3"/>
<circle class="st0" cx="237.2" cy="143.5" r="1.3"/>
<circle class="st0" cx="241.8" cy="143.5" r="1.3"/>
<circle class="st0" cx="246.6" cy="143.5" r="1.3"/>
<circle class="st0" cx="251.4" cy="143.5" r="1.3"/>
<circle class="st0" cx="256.1" cy="143.5" r="1.3"/>
<circle class="st0" cx="260.8" cy="143.5" r="1.3"/>
<circle class="st0" cx="265.5" cy="143.5" r="1.3"/>
<circle class="st0" cx="270.2" cy="143.5" r="1.3"/>
<circle class="st0" cx="275" cy="143.5" r="1.3"/>
<circle class="st0" cx="279.7" cy="143.5" r="1.3"/>
<circle class="st0" cx="284.4" cy="143.5" r="1.3"/>
<circle class="st0" cx="289.2" cy="143.5" r="1.3"/>
<circle class="st0" cx="293.9" cy="143.5" r="1.3"/>
<circle class="st0" cx="298.6" cy="143.5" r="1.3"/>
<circle class="st0" cx="303.3" cy="143.5" r="1.3"/>
<circle class="st0" cx="308.1" cy="143.5" r="1.3"/>
<circle class="st0" cx="312.8" cy="143.5" r="1.3"/>
<circle class="st0" cx="279.5" cy="130.4" r="1.3"/>
<circle class="st0" cx="284.2" cy="130.4" r="1.3"/>
<circle class="st0" cx="288.8" cy="130.4" r="1.3"/>
<circle class="st0" cx="293.5" cy="130.4" r="1.3"/>
<circle class="st0" cx="298.3" cy="130.4" r="1.3"/>
<circle class="st0" cx="303" cy="130.4" r="1.3"/>
<circle class="st0" cx="307.7" cy="130.4" r="1.3"/>
<circle class="st0" cx="312.3" cy="130.4" r="1.3"/>
<circle class="st0" cx="286.4" cy="165.4" r="1.3"/>
<circle class="st0" cx="290.8" cy="165.4" r="1.3"/>
<circle class="st0" cx="295.3" cy="165.4" r="1.3"/>
<circle class="st0" cx="299.8" cy="165.4" r="1.3"/>
<circle class="st0" cx="304.2" cy="165.4" r="1.3"/>
<circle class="st0" cx="308.8" cy="165.4" r="1.3"/>
<circle class="st0" cx="313.2" cy="165.4" r="1.3"/>
<circle class="st0" cx="317.7" cy="165.4" r="1.3"/>
<circle class="st0" cx="322.3" cy="165.4" r="1.3"/>
<path class="st0" d="M260.4,205.7c-14.8,0-26.8-12-26.8-26.8c0-14.9,12-26.8,26.8-26.8c14.9,0,26.8,12,26.8,26.8l0,0
	C287.3,193.6,275.3,205.7,260.4,205.7z M260.4,154.2c-13.6,0-24.6,11-24.6,24.6s11,24.6,24.6,24.6c13.6,0,24.6-11,24.6-24.6
	C285.1,165.2,274,154.2,260.4,154.2z"/>
<path class="st0" d="M203.5,195.4c-14.8,0-26.8-12-26.8-26.8c0-14.8,12-26.8,26.8-26.8s26.8,12,26.8,26.8
	C230.3,183.4,218.2,195.3,203.5,195.4z M203.5,144.1c-13.6,0-24.6,11-24.6,24.6c0,13.6,11,24.6,24.6,24.6c13.6,0,24.6-11,24.6-24.6
	l0,0C228,155,217,144.1,203.5,144.1z"/>
<path class="st0" d="M203.5,132.2c-14.8,0-26.8-12-26.8-26.8s12-26.8,26.8-26.8s26.8,12,26.8,26.8
	C230.3,120.2,218.2,132.2,203.5,132.2z M203.5,80.7c-13.6,0-24.6,11-24.6,24.6s11,24.6,24.6,24.6c13.6,0,24.6-10.9,24.6-24.6l0,0
	C228,91.8,217,80.7,203.5,80.7L203.5,80.7z"/>
<rect x="389.2" y="135.2" class="st0" width="26.6" height="2.2"/>
<polygon class="st0" points="416.6,145.4 415.1,143.8 422.7,136.8 414.5,129 416,127.3 425.9,136.8 "/>
<circle class="st7" cx="351.1" cy="136.3" r="47"/>
<path class="st0" d="M351.1,185.1c-27,0-48.8-21.8-48.8-48.8s21.8-48.8,48.8-48.8s48.8,21.8,48.8,48.8
	C399.8,163.3,377.9,185,351.1,185.1z M351.1,91c-25.1,0-45.3,20.3-45.3,45.3s20.3,45.3,45.3,45.3c25.1,0,45.3-20.3,45.3-45.3
	C396.3,111.2,376,91,351.1,91z"/>
<path class="st1" d="M376,141.1c-0.1,0-0.3-0.1-0.4-0.1c-0.6-0.1-0.9-0.1-1.4-0.1c-0.9-0.1-1.8-0.2-2.7-0.4
	c-0.2-0.2-0.6-0.3-0.7-0.7l-0.6-0.2c0.7-4.7-0.4-9.5-3.1-13.5c0.2-0.2,0.4-0.4,0.6-0.6c0-0.3,0.1-0.6,0.2-0.9
	c0.7-0.6,1.4-1.1,2.2-1.6c0.4-0.2,0.9-0.4,1.2-0.7c0.1-0.1,0.2-0.2,0.3-0.2c0.7-0.4,0.9-1.3,0.4-2c-0.4-0.7-1.3-0.9-2-0.4
	c-0.1,0.1-0.2,0.1-0.2,0.2c-0.1,0.1-0.2,0.2-0.3,0.2c-0.3,0.3-0.7,0.7-1,1c-0.6,0.7-1.3,1.3-2,1.8c-0.2,0.1-0.6,0.2-0.9,0.1
	l-0.6,0.4c-3.2-3.5-7.7-5.6-12.4-6c0-0.2,0-0.6,0-0.7c-0.2-0.2-0.4-0.4-0.6-0.8c0-0.9,0-1.8,0.2-2.8c0.1-0.4,0.2-0.9,0.2-1.4
	c0-0.1,0-0.2,0-0.4c0.1-0.9-0.6-1.6-1.3-1.7c-0.9-0.1-1.6,0.6-1.7,1.3c0,0.1,0,0.2,0,0.3l0,0c0,0.1,0,0.2,0,0.3
	c0,0.6,0.1,0.9,0.2,1.4c0.2,0.9,0.2,1.8,0.2,2.8c-0.1,0.2-0.2,0.6-0.6,0.8v0.6c-0.9,0.1-1.8,0.2-2.8,0.4c-3.8,0.9-7.1,2.8-9.8,5.6
	c-0.2-0.1-0.3-0.2-0.6-0.3c-0.2,0.1-0.6,0.1-0.9-0.1c-0.8-0.6-1.3-1.1-2-1.8c-0.3-0.3-0.6-0.7-0.9-1c-0.1-0.1-0.2-0.2-0.3-0.2
	c-0.2-0.2-0.7-0.3-1-0.4c-0.4,0-0.9,0.2-1.2,0.6c-0.6,0.7-0.3,1.7,0.3,2.2l0,0c0.1,0.1,0.2,0.2,0.3,0.2c0.4,0.2,0.8,0.6,1.2,0.7
	c0.8,0.4,1.6,0.9,2.2,1.6c0.2,0.2,0.2,0.6,0.3,0.9l0.6,0.4c-2.7,3.9-3.7,8.7-3.1,13.5l-0.6,0.2c-0.2,0.2-0.3,0.6-0.6,0.7
	c-0.9,0.2-1.8,0.3-2.7,0.4c-0.6,0-0.9,0.1-1.4,0.1c-0.1,0-0.2,0.1-0.4,0.1l0,0l0,0c-0.9,0.1-1.3,0.9-1.3,1.7
	c0.1,0.9,0.9,1.3,1.7,1.3c0.1,0,0.2,0,0.2-0.1l0,0l0,0c0.1,0,0.2-0.1,0.4-0.1c0.4-0.2,0.9-0.3,1.3-0.6c0.9-0.3,1.7-0.6,2.6-0.8
	c0.3,0,0.6,0.1,0.9,0.3l0.7-0.1c1.4,4.6,4.6,8.2,8.7,10.8l-0.2,0.7c0.1,0.2,0.2,0.6,0.2,0.9c-0.3,0.9-0.9,1.7-1.3,2.5
	c-0.2,0.3-0.6,0.8-0.8,1.2c-0.1,0.1-0.2,0.2-0.2,0.4c-0.4,0.7-0.2,1.7,0.6,2c0.7,0.4,1.7,0.2,2-0.6c0.1-0.1,0.1-0.2,0.1-0.2l0,0l0,0
	c0.1-0.1,0.2-0.2,0.2-0.3c0.2-0.4,0.3-0.9,0.4-1.3c0.2-0.9,0.7-1.9,1.1-2.7c0.2-0.2,0.4-0.2,0.7-0.3l0.3-0.6c4.5,1.7,9.4,1.7,13.8,0
	c0.1,0.2,0.2,0.6,0.3,0.6c0.3,0.1,0.6,0.2,0.8,0.4c0.4,0.8,0.8,1.7,1,2.5c0.1,0.4,0.2,0.9,0.4,1.3c0.1,0.1,0.1,0.2,0.2,0.3
	c0.2,0.8,1.1,1.2,1.9,0.9c0.8-0.2,1.2-1.1,0.9-1.9c0-0.1-0.1-0.2-0.1-0.2c-0.1-0.1-0.2-0.2-0.2-0.4c-0.2-0.4-0.6-0.8-0.8-1.2
	c-0.6-0.8-0.9-1.6-1.3-2.5c-0.1-0.2,0-0.6,0.1-0.9c-0.1-0.2-0.2-0.4-0.2-0.6c4.1-2.5,7.2-6.2,8.6-10.8c0.2,0,0.6,0.1,0.6,0.1
	c0.2-0.2,0.6-0.3,0.9-0.3c0.9,0.2,1.8,0.4,2.6,0.8c0.4,0.2,0.9,0.3,1.3,0.6c0.1,0,0.2,0.1,0.4,0.1l0,0l0,0c0.8,0.2,1.7-0.2,1.9-0.9
	c0.2-0.8-0.2-1.7-0.9-1.9C376.3,141.1,376.2,141.1,376,141.1L376,141.1z M361.9,125.8l-6.3,4.6l0,0c-0.6,0.4-1.3,0.2-1.8-0.2
	c-0.2-0.2-0.2-0.4-0.2-0.7l0,0l-0.4-7.8C356.3,121.9,359.5,123.4,361.9,125.8L361.9,125.8z M349.9,134.4h2.5l1.4,1.9l-0.6,2.3
	l-2.1,1l-2.1-1l-0.6-2.3L349.9,134.4z M347.6,121.8c0.6-0.1,1-0.2,1.7-0.2l-0.4,7.8l0,0c0,0.7-0.7,1.3-1.3,1.3
	c-0.2,0-0.6-0.1-0.7-0.2l0,0l-6.5-4.6C342.3,123.8,344.9,122.4,347.6,121.8z M338,128.7l5.8,5.2l0,0c0.6,0.6,0.6,1.3,0.2,1.9
	c-0.2,0.2-0.4,0.3-0.7,0.4l0,0l-7.6,2.1C335.4,135.1,336.2,131.6,338,128.7L338,128.7z M345.8,142.7l-3,7.2c-2.8-1.8-5-4.6-6.1-7.8
	l7.7-1.3l0,0c0.1,0,0.2,0,0.2,0c0.7,0,1.3,0.6,1.3,1.3C345.9,142.3,345.9,142.5,345.8,142.7L345.8,142.7z M354.6,151.9
	c-2.8,0.6-5.7,0.6-8.4-0.4l3.8-6.8l0,0c0.3-0.6,1.1-0.9,1.8-0.6c0.2,0.1,0.4,0.3,0.6,0.6l0,0l3.8,6.8
	C355.6,151.7,355.1,151.8,354.6,151.9L354.6,151.9z M359.5,150l-3-7.2l0,0c-0.2-0.7,0-1.3,0.6-1.7c0.2-0.1,0.3-0.1,0.6-0.2
	c0.1,0,0.2,0,0.3,0l0,0l7.8,1.3C364.6,145.3,362.3,148.1,359.5,150L359.5,150z M366.5,138.5l-7.6-2.1l0,0c-0.7-0.2-1.1-0.9-0.9-1.7
	c0.1-0.2,0.2-0.6,0.4-0.6l0,0l5.8-5.2C366,131.6,366.8,135.1,366.5,138.5L366.5,138.5z"/>
<rect x="198.5" y="155.9" class="st8" width="17.2" height="17.2"/>
<rect x="195.1" y="160" class="st8" width="17.2" height="17.2"/>
<rect x="191.7" y="164.2" class="st8" width="17.2" height="17.2"/>
</svg>
