<?xml version="1.0" encoding="utf-8"?>
<!-- Generator: Adobe Illustrator 24.0.0, SVG Export Plug-In . SVG Version: 6.00 Build 0)  -->
<svg version="1.1" id="Layer_1" xmlns="http://www.w3.org/2000/svg" xmlns:xlink="http://www.w3.org/1999/xlink" x="0px" y="0px"
	 viewBox="0 0 576 210" style="enable-background:new 0 0 576 210;" xml:space="preserve">
<style type="text/css">
	.st0{fill:#C8E8EB;}
	.st1{fill:#FFFFFF;}
	.st2{fill:#466BB2;}
	.st3{fill:#1FBDCE;}
	.st4{fill:#414141;}
	.st5{fill:#FCFDFF;}
	.st6{fill:#D9EFF1;}
	.st7{fill:#316CE6;}
	.st8{fill:#316CE6;stroke:#FFFFFF;stroke-width:0.8929;stroke-miterlimit:10;}
</style>
<title>kubernetes_icons</title>
<circle class="st0" cx="443.5" cy="105.2" r="56.7"/>
<rect x="414.7" y="65.5" class="st1" width="57.5" height="55.5"/>
<rect x="422.3" y="72.8" class="st2" width="19.5" height="18.8"/>
<rect x="445.2" y="72.8" class="st3" width="19.5" height="18.8"/>
<rect x="422.3" y="94.9" class="st4" width="42.3" height="18.8"/>
<path class="st2" d="M422.3,129.4h2.5l5.7,7.5v-7.5h2.6v12.2h-2.3l-5.9-7.7v7.7h-2.6V129.4z"/>
<path class="st2" d="M435.3,136.9L435.3,136.9c0.1-2.8,2.4-5,5.2-4.9c2.6,0.1,4.7,2.2,4.8,4.8v0c-0.1,2.8-2.4,4.9-5.2,4.8
	C437.5,141.6,435.4,139.5,435.3,136.9z M442.8,136.9L442.8,136.9c0.1-1.4-1-2.5-2.4-2.6c0,0-0.1,0-0.1,0c-1.3,0-2.4,1-2.4,2.3
	c0,0.1,0,0.1,0,0.2v0c-0.1,1.4,1,2.5,2.4,2.6c0,0,0.1,0,0.1,0c1.3,0,2.4-1,2.4-2.3C442.8,137,442.8,137,442.8,136.9z"/>
<path class="st2" d="M446.9,136.9L446.9,136.9c0-3.1,2-4.8,4.2-4.8c1.1,0,2.2,0.5,2.9,1.4v-4.6h2.6v12.7H454v-1.3
	c-0.6,1-1.7,1.5-2.9,1.5C448.9,141.7,446.9,140,446.9,136.9z M454,136.9L454,136.9c0.2-1.3-0.7-2.4-2-2.6c-1.3-0.2-2.4,0.7-2.6,2
	c0,0.2,0,0.4,0,0.6v0c-0.2,1.3,0.7,2.4,2,2.6c1.3,0.2,2.4-0.7,2.6-2C454.1,137.3,454.1,137.1,454,136.9z"/>
<path class="st2" d="M458.5,136.9L458.5,136.9c-0.1-2.6,1.9-4.8,4.4-4.9c0.1,0,0.1,0,0.2,0c3.1,0,4.5,2.4,4.5,5.1c0,0.2,0,0.5,0,0.7
	h-6.5c0.2,1.1,1.2,1.9,2.3,1.8c0.9,0,1.7-0.3,2.3-1l1.5,1.3c-1.8,2.1-4.9,2.3-6.9,0.6C459.2,139.7,458.6,138.3,458.5,136.9
	L458.5,136.9z M465.1,136.1c0-1.1-0.9-2-2-2c-1.1,0-2,0.9-2,2H465.1z"/>
<path class="st0" d="M172.7,87.8c-17.3,0-31.4-14-31.4-31.4s14-31.4,31.4-31.4c17.3,0,31.4,14,31.4,31.4
	C204.1,73.8,190,87.8,172.7,87.8z M172.7,27.7c-15.9,0-28.8,12.9-28.8,28.8s12.9,28.8,28.8,28.8s28.8-12.9,28.8-28.8c0,0,0,0,0,0
	C201.5,40.6,188.6,27.7,172.7,27.7L172.7,27.7z"/>
<rect x="163.4" y="44.8" class="st4" width="28.7" height="12.4"/>
<path class="st5" d="M192.5,57.7h-29.6V44.4h29.6V57.7z M163.8,56.8h27.9V45.3h-27.9L163.8,56.8z"/>
<rect x="160.8" y="47.8" class="st4" width="28.7" height="12.4"/>
<path class="st5" d="M189.9,60.7h-29.6V47.4h29.6V60.7z M161.2,59.8h27.9V48.2h-27.9V59.8z"/>
<rect x="157.2" y="50.8" class="st4" width="28.7" height="12.4"/>
<path class="st5" d="M186.4,63.6h-29.6V50.3h29.6V63.6z M157.7,62.8h27.9V51.2h-27.9V62.8z"/>
<rect x="154.2" y="53.7" class="st4" width="28.7" height="12.4"/>
<path class="st5" d="M183.3,66.6h-29.6V53.3h29.6V66.6z M154.6,65.7h27.9V54.2h-27.9V65.7z"/>
<rect x="99.8" y="126.1" class="st2" width="20.2" height="20.2"/>
<path class="st5" d="M120.5,146.7H99.4v-21.1h21.1V146.7z M100.3,145.8h19.3v-19.3h-19.3V145.8z"/>
<rect x="96" y="130.8" class="st2" width="20.2" height="20.2"/>
<path class="st5" d="M116.6,151.4H95.5v-21.1h21.1V151.4z M96.4,150.5h19.3v-19.3H96.4L96.4,150.5z"/>
<rect x="165.8" y="137.2" class="st3" width="20.2" height="20.2"/>
<path class="st1" d="M186.4,157.8h-21v-21h21V157.8z M166.2,157h19.3v-19.3h-19.3V157z"/>
<rect x="161.9" y="141.9" class="st3" width="20.2" height="20.2"/>
<path class="st1" d="M182.5,162.5h-21v-21h21L182.5,162.5z M162.3,161.7h19.3v-19.3h-19.3V161.7z"/>
<rect x="158.3" y="146.6" class="st3" width="20.2" height="20.2"/>
<path class="st1" d="M178.9,167.2h-21v-21h21V167.2z M158.7,166.4H178v-19.3h-19.3V166.4z"/>
<rect x="95.2" y="54.5" class="st6" width="24.4" height="21.7"/>
<path class="st1" d="M120,76.7H94.7V54H120V76.7z M95.6,75.7h23.4V54.9H95.6V75.7z"/>
<rect x="92.2" y="57.4" class="st6" width="24.4" height="21.7"/>
<path class="st1" d="M117,79.6H91.7V56.9H117V79.6z M92.7,78.6h23.4V57.9H92.7V78.6z"/>
<circle class="st0" cx="203" cy="72.4" r="1.5"/>
<circle class="st0" cx="208.2" cy="72.4" r="1.5"/>
<circle class="st0" cx="213.5" cy="72.4" r="1.5"/>
<circle class="st0" cx="218.7" cy="72.4" r="1.5"/>
<circle class="st0" cx="224" cy="72.4" r="1.5"/>
<circle class="st0" cx="229.2" cy="72.4" r="1.5"/>
<circle class="st0" cx="234.4" cy="72.4" r="1.5"/>
<circle class="st0" cx="239.7" cy="72.4" r="1.5"/>
<circle class="st0" cx="244.9" cy="72.4" r="1.5"/>
<circle class="st0" cx="189.4" cy="96.3" r="1.5"/>
<circle class="st0" cx="183.9" cy="96.3" r="1.5"/>
<circle class="st0" cx="178.4" cy="96.3" r="1.5"/>
<circle class="st0" cx="172.9" cy="96.3" r="1.5"/>
<circle class="st0" cx="167.4" cy="96.3" r="1.5"/>
<circle class="st0" cx="162" cy="96.3" r="1.5"/>
<circle class="st0" cx="156.5" cy="96.3" r="1.5"/>
<circle class="st0" cx="151" cy="96.3" r="1.5"/>
<circle class="st0" cx="145.5" cy="96.3" r="1.5"/>
<circle class="st0" cx="140" cy="96.3" r="1.5"/>
<circle class="st0" cx="136.3" cy="92.5" r="1.5"/>
<circle class="st0" cx="132" cy="88" r="1.5"/>
<circle class="st0" cx="132" cy="119.4" r="1.5"/>
<circle class="st0" cx="135.8" cy="115.4" r="1.5"/>
<circle class="st0" cx="140" cy="111.6" r="1.5"/>
<circle class="st0" cx="145.5" cy="111.6" r="1.5"/>
<circle class="st0" cx="151" cy="111.6" r="1.5"/>
<circle class="st0" cx="156.5" cy="111.6" r="1.5"/>
<circle class="st0" cx="162.1" cy="111.6" r="1.5"/>
<circle class="st0" cx="167.6" cy="111.6" r="1.5"/>
<circle class="st0" cx="173.1" cy="111.6" r="1.5"/>
<circle class="st0" cx="178.6" cy="111.6" r="1.5"/>
<circle class="st0" cx="184.2" cy="111.6" r="1.5"/>
<circle class="st0" cx="189.7" cy="111.6" r="1.5"/>
<circle class="st0" cx="195.2" cy="111.6" r="1.5"/>
<circle class="st0" cx="200.7" cy="111.6" r="1.5"/>
<circle class="st0" cx="206.3" cy="111.6" r="1.5"/>
<circle class="st0" cx="211.8" cy="111.6" r="1.5"/>
<circle class="st0" cx="217.3" cy="111.6" r="1.5"/>
<circle class="st0" cx="222.8" cy="111.6" r="1.5"/>
<circle class="st0" cx="228.4" cy="111.6" r="1.5"/>
<circle class="st0" cx="233.9" cy="111.6" r="1.5"/>
<circle class="st0" cx="194.9" cy="96.3" r="1.5"/>
<circle class="st0" cx="200.4" cy="96.3" r="1.5"/>
<circle class="st0" cx="205.9" cy="96.3" r="1.5"/>
<circle class="st0" cx="211.4" cy="96.3" r="1.5"/>
<circle class="st0" cx="216.9" cy="96.3" r="1.5"/>
<circle class="st0" cx="222.4" cy="96.3" r="1.5"/>
<circle class="st0" cx="227.9" cy="96.3" r="1.5"/>
<circle class="st0" cx="233.4" cy="96.3" r="1.5"/>
<circle class="st0" cx="203" cy="137.1" r="1.5"/>
<circle class="st0" cx="208.2" cy="137.1" r="1.5"/>
<circle class="st0" cx="213.4" cy="137.1" r="1.5"/>
<circle class="st0" cx="218.7" cy="137.1" r="1.5"/>
<circle class="st0" cx="223.9" cy="137.1" r="1.5"/>
<circle class="st0" cx="229.2" cy="137.1" r="1.5"/>
<circle class="st0" cx="234.4" cy="137.1" r="1.5"/>
<circle class="st0" cx="239.6" cy="137.1" r="1.5"/>
<circle class="st0" cx="244.9" cy="137.1" r="1.5"/>
<path class="st0" d="M172.7,184.2c-17.3,0-31.4-14-31.4-31.4s14-31.4,31.4-31.4s31.4,14,31.4,31.4l0,0
	C204.1,170.1,190,184.2,172.7,184.2z M172.7,124.1c-15.9,0-28.8,12.9-28.8,28.8s12.9,28.8,28.8,28.8c15.9,0,28.8-12.9,28.8-28.8
	C201.5,136.9,188.6,124.1,172.7,124.1z"/>
<path class="st0" d="M106.1,172.3c-17.3,0-31.4-14-31.4-31.4c0-17.3,14-31.4,31.4-31.4c17.3,0,31.4,14,31.4,31.4
	C137.4,158.2,123.4,172.2,106.1,172.3z M106.1,112.2c-15.9,0-28.8,12.9-28.8,28.8c0,15.9,12.9,28.8,28.8,28.8s28.8-12.9,28.8-28.8v0
	C134.8,125,121.9,112.2,106.1,112.2z"/>
<path class="st0" d="M106.1,98.3c-17.3,0-31.4-14-31.4-31.4s14-31.4,31.4-31.4c17.3,0,31.4,14,31.4,31.4
	C137.4,84.3,123.4,98.3,106.1,98.3z M106.1,38.2c-15.9,0-28.8,12.9-28.8,28.8s12.9,28.8,28.8,28.8c15.9,0,28.8-12.9,28.8-28.8
	c0,0,0,0,0,0C134.8,51.1,121.9,38.2,106.1,38.2L106.1,38.2z"/>
<rect x="348.6" y="101.9" class="st0" width="31.1" height="2.6"/>
<polygon class="st0" points="370.7,113.8 369,111.9 377.8,103.6 368.2,94.5 370,92.6 381.6,103.6 "/>
<circle class="st7" cx="293.7" cy="103.2" r="55"/>
<path class="st0" d="M293.7,160.2c-31.5,0-57-25.5-57-57s25.5-57,57-57s57,25.5,57,57C350.6,134.6,325.1,160.1,293.7,160.2z
	 M293.7,50.2c-29.3,0-53,23.7-53,53s23.7,53,53,53s53-23.7,53-53C346.6,73.9,322.9,50.2,293.7,50.2z"/>
<path class="st1" d="M322.9,108.7c-0.1,0-0.4-0.1-0.5-0.1c-0.6-0.1-1.1-0.1-1.7-0.1c-1.1-0.1-2.1-0.2-3.1-0.5
	c-0.3-0.2-0.6-0.4-0.8-0.8l-0.7-0.2c0.8-5.5-0.5-11.1-3.6-15.7c0.2-0.2,0.5-0.5,0.6-0.6c0-0.4,0.1-0.7,0.3-1
	c0.8-0.7,1.7-1.3,2.6-1.8c0.5-0.3,1-0.5,1.4-0.8c0.1-0.1,0.3-0.2,0.4-0.3c0.8-0.5,1.1-1.6,0.5-2.4c-0.5-0.8-1.6-1.1-2.4-0.5
	c-0.1,0.1-0.2,0.1-0.3,0.2c-0.1,0.1-0.3,0.2-0.4,0.3c-0.4,0.4-0.8,0.8-1.2,1.2c-0.7,0.8-1.5,1.5-2.4,2.1c-0.3,0.1-0.7,0.2-1.1,0.1
	l-0.7,0.5c-3.8-4-9-6.5-14.5-7c0-0.2,0-0.7,0-0.8c-0.3-0.2-0.5-0.5-0.6-0.9c0-1.1,0-2.1,0.2-3.2c0.1-0.5,0.2-1.1,0.2-1.7
	c0-0.1,0-0.3,0-0.5c0.1-1-0.6-1.8-1.6-1.9c-1-0.1-1.8,0.6-1.9,1.6c0,0.1,0,0.2,0,0.4c0,0,0,0,0,0c0,0.1,0,0.3,0,0.4
	c0,0.6,0.1,1.1,0.2,1.7c0.2,1,0.2,2.1,0.2,3.2c-0.1,0.3-0.3,0.7-0.6,0.9l0,0.7c-1.1,0.1-2.1,0.2-3.2,0.5c-4.4,1-8.3,3.3-11.4,6.5
	c-0.2-0.1-0.4-0.3-0.6-0.4c-0.3,0.1-0.7,0.1-1-0.1c-0.9-0.6-1.6-1.3-2.4-2.1c-0.4-0.4-0.7-0.8-1.1-1.2c-0.1-0.1-0.3-0.2-0.4-0.3
	c-0.3-0.3-0.8-0.4-1.2-0.5c-0.5,0-1.1,0.2-1.4,0.6c-0.6,0.8-0.4,2,0.4,2.6l0,0c0.1,0.1,0.3,0.2,0.4,0.3c0.5,0.3,0.9,0.6,1.4,0.8
	c0.9,0.5,1.8,1.1,2.6,1.8c0.2,0.3,0.3,0.6,0.4,1l0.6,0.5c-3.1,4.6-4.3,10.2-3.6,15.7l-0.7,0.2c-0.2,0.3-0.4,0.6-0.7,0.8
	c-1,0.3-2.1,0.4-3.1,0.5c-0.6,0-1.1,0.1-1.7,0.1c-0.1,0-0.3,0.1-0.5,0.1l0,0l0,0c-1,0.1-1.6,1-1.5,2c0.1,1,1,1.6,2,1.5
	c0.1,0,0.2,0,0.3-0.1l0,0c0,0,0,0,0,0c0.1,0,0.3-0.1,0.5-0.1c0.5-0.2,1.1-0.4,1.6-0.6c1-0.4,2-0.7,3-0.9c0.4,0,0.7,0.1,1,0.4
	l0.8-0.1c1.7,5.3,5.3,9.7,10.1,12.6l-0.3,0.8c0.1,0.3,0.2,0.6,0.2,1c-0.4,1-1,1.9-1.6,2.8c-0.3,0.4-0.7,0.9-0.9,1.4
	c-0.1,0.1-0.2,0.3-0.2,0.5c-0.5,0.8-0.2,1.9,0.6,2.4c0.8,0.5,1.9,0.2,2.4-0.6c0.1-0.1,0.1-0.2,0.1-0.3l0,0v0
	c0.1-0.1,0.2-0.3,0.2-0.4c0.2-0.5,0.4-1.1,0.5-1.6c0.3-1.1,0.8-2.2,1.3-3.1c0.2-0.2,0.5-0.3,0.8-0.4l0.4-0.7c5.2,2,10.9,2,16.1,0
	c0.1,0.2,0.3,0.6,0.4,0.7c0.4,0.1,0.7,0.3,0.9,0.5c0.5,0.9,0.9,1.9,1.2,2.9c0.1,0.5,0.3,1.1,0.5,1.6c0.1,0.1,0.1,0.3,0.2,0.4
	c0.3,0.9,1.3,1.4,2.2,1.1s1.4-1.3,1.1-2.2c0-0.1-0.1-0.2-0.1-0.3c-0.1-0.1-0.2-0.3-0.2-0.5c-0.3-0.5-0.6-0.9-0.9-1.4
	c-0.6-0.9-1.1-1.8-1.5-2.8c-0.1-0.3,0-0.7,0.1-1c-0.1-0.2-0.2-0.5-0.3-0.7c4.8-2.8,8.4-7.3,10-12.6c0.2,0,0.6,0.1,0.7,0.1
	c0.3-0.2,0.6-0.4,1-0.4c1,0.2,2.1,0.5,3,0.9c0.5,0.2,1,0.4,1.6,0.6c0.1,0,0.3,0.1,0.5,0.1c0,0,0,0,0,0l0,0c0.9,0.3,1.9-0.2,2.2-1.1
	c0.3-0.9-0.2-1.9-1.1-2.2C323.1,108.7,323,108.7,322.9,108.7L322.9,108.7z M306.3,90.9l-7.4,5.3l0,0c-0.7,0.5-1.6,0.3-2.1-0.3
	c-0.2-0.2-0.3-0.5-0.3-0.8l0,0l-0.5-9.1C299.8,86.4,303.5,88.1,306.3,90.9L306.3,90.9z M292.3,100.9h2.8l1.7,2.2l-0.6,2.7l-2.5,1.2
	l-2.5-1.2l-0.6-2.7L292.3,100.9z M289.6,86.2c0.6-0.1,1.2-0.2,1.9-0.3L291,95l0,0c0,0.8-0.8,1.5-1.6,1.5c-0.3,0-0.6-0.1-0.8-0.3l0,0
	l-7.5-5.3C283.4,88.6,286.4,86.9,289.6,86.2z M278.3,94.3l6.8,6.1l0,0c0.6,0.6,0.7,1.5,0.2,2.2c-0.2,0.2-0.5,0.4-0.8,0.5l0,0
	l-8.8,2.5C275.3,101.7,276.2,97.7,278.3,94.3L278.3,94.3z M287.4,110.6l-3.5,8.4c-3.3-2.1-5.9-5.3-7.2-9.1l9-1.5l0,0
	c0.1,0,0.2,0,0.3,0c0.8,0,1.5,0.7,1.5,1.6C287.5,110.2,287.5,110.4,287.4,110.6L287.4,110.6z M297.7,121.4c-3.3,0.7-6.7,0.6-9.8-0.5
	l4.4-8h0c0.4-0.7,1.3-1,2.1-0.6c0.3,0.1,0.5,0.4,0.6,0.6h0l4.4,8C298.9,121.1,298.3,121.3,297.7,121.4L297.7,121.4z M303.4,119.1
	l-3.5-8.5l0,0c-0.3-0.8,0-1.6,0.7-2c0.2-0.1,0.4-0.1,0.6-0.2c0.1,0,0.2,0,0.4,0l0,0l9.1,1.5C309.4,113.7,306.8,116.9,303.4,119.1
	L303.4,119.1z M311.7,105.7l-8.8-2.5l0,0c-0.8-0.2-1.3-1.1-1.1-1.9c0.1-0.3,0.2-0.6,0.5-0.7l0,0l6.8-6.1
	C311.1,97.7,312,101.7,311.7,105.7L311.7,105.7z"/>
<rect x="100.3" y="126.1" class="st8" width="20" height="20"/>
<rect x="96.3" y="130.9" class="st8" width="20" height="20"/>
<rect x="92.3" y="135.7" class="st8" width="20" height="20"/>
</svg>
