<svg id="图层_1" data-name="图层 1" xmlns="http://www.w3.org/2000/svg" viewBox="0 0 310.51 211.43"><defs><style>.cls-1,.cls-4{fill:#00758f;}.cls-2,.cls-3{fill:#f29111;}.cls-3,.cls-4{fill-rule:evenodd;}</style></defs><title>MySQL-Logo0</title><path class="cls-1" d="M113.46,219.05h-12q-.63-30.42-3.5-57.2h-.1l-18.24,57.2H70.52l-18.13-57.2h-.11q-2,25.72-2.55,57.2H38.81q1.06-38.28,5.3-71.77H59L76.24,200h.11l17.39-52.73H108q4.67,39.22,5.51,71.77" transform="translate(-38.81 -26.43)"/><path class="cls-1" d="M165.43,166.1q-7.32,39.81-19.3,57.86-9.33,13.9-20.47,13.91a20.05,20.05,0,0,1-7.31-1.79v-6.4a34.22,34.22,0,0,0,5,.32,12,12,0,0,0,8.38-2.88,10.48,10.48,0,0,0,3.82-7.86c0-2-1-6.06-3-12.23L119.41,166.1h11.77l9.44,30.61q3.18,10.44,2.65,14.57a200.26,200.26,0,0,0,10.81-45.18h11.35" transform="translate(-38.81 -26.43)"/><path class="cls-2" d="M217.91,199.15a19.1,19.1,0,0,1-6.67,15Q204.57,220,193.32,220q-10.5,0-20.36-6.7l3.08-6.17q8.47,4.26,15.37,4.26c4.31,0,7.68-1,10.12-2.87a9.76,9.76,0,0,0,3.9-8c0-4.26-3-7.9-8.4-11-5-2.76-15.06-8.53-15.06-8.53-5.43-4-8.16-8.24-8.16-15.27a17.87,17.87,0,0,1,6.09-14.09q6.1-5.37,15.75-5.37a32.46,32.46,0,0,1,18.13,5.32L211,157.8a35.06,35.06,0,0,0-13.78-3q-5.51,0-8.48,2.67a8.9,8.9,0,0,0-3.21,6.8c0,4.25,3,7.93,8.62,11.05,5.08,2.76,15.36,8.64,15.36,8.64,5.6,4,8.38,8.2,8.38,15.17" transform="translate(-38.81 -26.43)"/><path class="cls-3" d="M239.33,204.69q-4.35-7-4.35-22.54Q235,155,251.42,155q8.58,0,12.62,6.48,4.33,7,4.34,22.33,0,27.33-16.43,27.33-8.59,0-12.62-6.49M282,220.78l-13.16-6.51a24.81,24.81,0,0,0,3.29-3.2q8.39-9.88,8.38-29.24,0-35.61-27.89-35.62-13.67,0-21.31,9-8.39,9.9-8.38,29.13,0,18.93,7.42,27.75,6.76,8,20.46,8a33,33,0,0,0,9.37-1.26l17.13,10,4.67-8.07" transform="translate(-38.81 -26.43)"/><path class="cls-2" d="M324.91,219.05h-34V147.28h11.45v62.94h22.59v8.83" transform="translate(-38.81 -26.43)"/><path class="cls-2" d="M333.07,219H335v-7.3h2.49v-1.49h-7v1.49h2.57V219Zm14.45,0h1.79v-8.79h-2.7l-2.19,6-2.38-6h-2.59V219h1.69v-6.69h.1l2.49,6.69H345l2.5-6.69V219" transform="translate(-38.81 -26.43)"/><path class="cls-4" d="M339.28,123.24c-6.92-.18-12.28.51-16.78,2.42-1.29.52-3.37.52-3.54,2.17.69.69.78,1.82,1.39,2.78a20.14,20.14,0,0,0,4.49,5.29c1.82,1.39,3.63,2.77,5.54,4,3.37,2.09,7.18,3.3,10.46,5.38,1.91,1.22,3.8,2.78,5.71,4.08.95.69,1.55,1.82,2.77,2.25v-.26c-.61-.78-.78-1.91-1.39-2.78-.86-.86-1.73-1.65-2.59-2.51a41.2,41.2,0,0,0-9-8.75c-2.77-1.92-8.83-4.52-10-7.72l-.18-.18a34.52,34.52,0,0,0,6-1.39c2.94-.78,5.62-.6,8.65-1.38,1.38-.35,2.77-.79,4.16-1.21v-.79c-1.57-1.56-2.69-3.64-4.33-5.12a116.15,116.15,0,0,0-14.27-10.66c-2.69-1.74-6.15-2.86-9-4.34-1-.52-2.76-.77-3.37-1.65-1.56-1.9-2.43-4.42-3.55-6.67-2.5-4.77-4.93-10.06-7.09-15.09-1.55-3.38-2.51-6.76-4.41-9.89-8.91-14.74-18.59-23.67-33.47-32.43-3.2-1.82-7-2.6-11.07-3.56-2.16-.09-4.32-.26-6.49-.34-1.38-.61-2.77-2.26-4-3C239,28.71,226.33,22,222.7,30.88c-2.34,5.64,3.46,11.19,5.45,14.05a41.08,41.08,0,0,1,4.41,6.5c.6,1.47.78,3,1.38,4.6a105.45,105.45,0,0,0,4.5,11.62,41.35,41.35,0,0,0,3.2,5.37c.69,1,1.9,1.39,2.16,3-1.2,1.74-1.3,4.34-2,6.51-3.11,9.8-1.9,21.94,2.51,29.13,1.38,2.17,4.67,6.94,9.08,5.12,3.89-1.56,3-6.5,4.15-10.84.26-1,.09-1.73.6-2.43v.18c1.21,2.42,2.43,4.76,3.55,7.2,2.69,4.24,7.35,8.66,11.25,11.61,2.07,1.57,3.71,4.25,6.31,5.21v-.26h-.17a9.75,9.75,0,0,0-2-1.74,42.86,42.86,0,0,1-4.5-5.2,110.65,110.65,0,0,1-9.68-15.78c-1.39-2.7-2.6-5.64-3.73-8.33-.51-1-.51-2.6-1.38-3.12-1.3,1.9-3.2,3.55-4.15,5.89-1.64,3.73-1.81,8.33-2.42,13.1-.35.09-.17,0-.35.17-2.76-.69-3.71-3.55-4.75-6-2.6-6.17-3-16-.78-23.17.6-1.81,3.2-7.54,2.16-9.27-.52-1.66-2.25-2.6-3.2-3.91a34,34,0,0,1-3.11-5.55c-2.08-4.85-3.12-10.23-5.36-15.08a46.13,46.13,0,0,0-4.33-6.68c-1.64-2.34-3.46-4-4.76-6.76-.43-1-1-2.52-.34-3.56a1.39,1.39,0,0,1,1.21-1.13c1.12-.95,4.32.26,5.44.78a43.85,43.85,0,0,1,8.57,4.34c1.21.86,2.51,2.51,4.06,3h1.82c2.77.6,5.88.17,8.48.95a55.17,55.17,0,0,1,12.45,6,76.89,76.89,0,0,1,27,29.66c1,2,1.48,3.82,2.43,5.89,1.81,4.26,4.06,8.6,5.88,12.76s3.54,8.23,6.14,11.62c1.29,1.82,6.49,2.77,8.82,3.73,1.73.77,4.41,1.47,6,2.42,2.94,1.82,5.87,3.9,8.65,5.9,1.38,1,5.7,3.21,6,4.94" transform="translate(-38.81 -26.43)"/><path class="cls-4" d="M251.06,47.87a14.15,14.15,0,0,0-3.54.43v.18h.17c.69,1.38,1.91,2.34,2.76,3.55.7,1.39,1.31,2.77,2,4.16l.17-.17c1.22-.87,1.82-2.25,1.82-4.34-.52-.61-.6-1.21-1-1.82-.52-.86-1.64-1.3-2.34-2" transform="translate(-38.81 -26.43)"/></svg>