<?xml version="1.0" encoding="utf-8"?>
<!-- Generator: Adobe Illustrator 24.0.0, SVG Export Plug-In . SVG Version: 6.00 Build 0)  -->
<svg version="1.1" id="Layer_1" xmlns="http://www.w3.org/2000/svg" xmlns:xlink="http://www.w3.org/1999/xlink" x="0px" y="0px"
	 viewBox="0 0 564.7 228.4" style="enable-background:new 0 0 564.7 228.4;" xml:space="preserve">
<style type="text/css">
	.st0{fill:#009639;}
	.st1{fill:#FFFFFF;}
</style>
<polygon class="st0" points="428.5,91.6 419.9,91.6 410.3,106.7 401,91.6 392,91.6 405.4,113.5 391.9,136.1 400.4,136.1 
	409.9,120.8 419.2,136.1 428.2,136.1 414.7,114 "/>
<polygon class="st0" points="380.8,91.6 380.8,121.9 363.3,91.6 356.1,91.6 356.1,136.1 363.3,136.1 363.3,105.9 380.8,136.1 
	388.1,136.1 388.1,91.6 "/>
<rect x="342.4" y="91.6" class="st0" width="7.8" height="44.5"/>
<path class="st0" d="M336.4,107.4v-2.6c0-8.7-6.4-14.3-17.5-14.3c-11.1,0-17.4,5.6-17.4,14.3v17.9c0,8.7,6.4,14.3,17.5,14.3
	c11.1,0,17.4-5.6,17.4-14.3v-10.5h-17.7v7.1h10v2.9c0,4.6-3.5,7.5-9.8,7.5c-6.2,0-9.7-2.9-9.7-7.5v-17c0-4.6,3.5-7.5,9.8-7.5
	c6.2,0,9.7,2.9,9.7,7.5v2.1L336.4,107.4L336.4,107.4z"/>
<polygon class="st0" points="288.3,91.6 288.3,121.9 270.7,91.6 263.5,91.6 263.5,136.1 270.7,136.1 270.7,105.9 288.3,136.1 
	295.5,136.1 295.5,91.6 "/>
<path class="st0" d="M118.6,147.2c0.6,1.1,1.5,1.9,2.6,2.5l51.2,29.5l0,0c2.1,1.2,4.7,1.2,6.8,0l51.2-29.5c2.1-1.2,3.4-3.5,3.4-5.9
	V84.7l0,0c0-2.5-1.2-4.7-3.4-5.9l-51.2-29.5l0,0c-2.1-1.2-4.7-1.2-6.8,0l0,0l-51.2,29.5c-2.2,1.2-3.5,3.5-3.5,5.9l0,0v59.2
	C117.7,145,117.9,146.1,118.6,147.2"/>
<path class="st1" d="M159.3,136.7c0,3.6-2.9,6.6-6.6,6.6s-6.6-2.9-6.6-6.6l0,0V91.6c0-3.5,3.1-6.4,7.4-6.4c3.1,0,6.8,1.2,9,4l2,2.4
	l27.6,32.9V91.7l0,0c0-3.6,2.9-6.6,6.6-6.6c3.7,0,6.6,2.9,6.6,6.6l0,0v45.2c0,3.5-3.1,6.4-7.4,6.4c-3.1,0-6.8-1.2-9-4l-29.5-35.2
	V136.7L159.3,136.7z"/>
</svg>
