<?xml version="1.0" encoding="utf-8"?>
<!-- Generator: Adobe Illustrator 24.0.0, SVG Export Plug-In . SVG Version: 6.00 Build 0)  -->
<svg version="1.1" id="Layer_1" xmlns="http://www.w3.org/2000/svg" xmlns:xlink="http://www.w3.org/1999/xlink" x="0px" y="0px"
	 viewBox="0 0 564.7 228.4" style="enable-background:new 0 0 564.7 228.4;" xml:space="preserve">
<style type="text/css">
	.st0{fill:#009639;}
	.st1{fill:#FFFFFF;}
</style>
<polygon class="st0" points="444,89.3 434.6,89.3 424,105.9 413.8,89.3 403.9,89.3 418.6,113.4 403.8,138.3 413.1,138.3 
	423.6,121.5 433.8,138.3 443.7,138.3 428.9,114 "/>
<polygon class="st0" points="391.6,89.3 391.6,122.7 372.3,89.3 364.4,89.3 364.4,138.3 372.3,138.3 372.3,105.1 391.6,138.3 
	399.6,138.3 399.6,89.3 "/>
<rect x="349.3" y="89.3" class="st0" width="8.6" height="49"/>
<path class="st0" d="M342.7,106.7v-2.9c0-9.6-7-15.7-19.3-15.7c-12.2,0-19.1,6.2-19.1,15.7v19.7c0,9.6,7,15.7,19.3,15.7
	c12.2,0,19.1-6.2,19.1-15.7V112h-19.5v7.8h11v3.2c0,5.1-3.9,8.3-10.8,8.3c-6.8,0-10.7-3.2-10.7-8.3v-18.7c0-5.1,3.9-8.3,10.8-8.3
	c6.8,0,10.7,3.2,10.7,8.3v2.3L342.7,106.7L342.7,106.7z"/>
<polygon class="st0" points="289.8,89.3 289.8,122.7 270.5,89.3 262.5,89.3 262.5,138.3 270.5,138.3 270.5,105.1 289.8,138.3 
	297.7,138.3 297.7,89.3 "/>
<path class="st0" d="M103.2,150.5c0.7,1.2,1.6,2.1,2.9,2.8l56.3,32.4l0,0c2.3,1.3,5.2,1.3,7.5,0l56.3-32.4c2.3-1.3,3.7-3.8,3.7-6.5
	v-65l0,0c0-2.8-1.3-5.2-3.7-6.5l-56.3-32.5l0,0c-2.3-1.3-5.2-1.3-7.5,0l0,0L106,75.3c-2.4,1.3-3.8,3.8-3.8,6.5l0,0v65.1
	C102.2,148.1,102.4,149.3,103.2,150.5"/>
<path class="st1" d="M147.9,138.9c0,4-3.2,7.3-7.3,7.3c-4.1,0-7.3-3.2-7.3-7.3l0,0V89.3c0-3.8,3.4-7,8.1-7c3.4,0,7.5,1.3,9.9,4.4
	l2.2,2.6l30.4,36.2V89.4l0,0c0-4,3.2-7.3,7.3-7.3c4.1,0,7.3,3.2,7.3,7.3l0,0v49.7c0,3.9-3.4,7-8.1,7c-3.4,0-7.5-1.3-9.9-4.4
	L148,103.1v35.9H147.9z"/>
</svg>
