<?xml version="1.0" encoding="utf-8"?>
<!-- Generator: Adobe Illustrator 24.0.0, SVG Export Plug-In . SVG Version: 6.00 Build 0)  -->
<svg version="1.1" id="Layer_1" xmlns="http://www.w3.org/2000/svg" xmlns:xlink="http://www.w3.org/1999/xlink" x="0px" y="0px"
	 viewBox="0 0 564.7 228.4" style="enable-background:new 0 0 564.7 228.4;" xml:space="preserve">
<style type="text/css">
	.st0{fill:#009639;}
	.st1{fill:#FFFFFF;}
</style>
<polygon class="st0" points="461.5,86.8 451,86.8 439.4,105.1 428.1,86.8 417.2,86.8 433.5,113.3 417.1,140.7 427.4,140.7 
	438.9,122.2 450.2,140.7 461.1,140.7 444.7,114 "/>
<polygon class="st0" points="403.6,86.8 403.6,123.5 382.4,86.8 373.7,86.8 373.7,140.7 382.4,140.7 382.4,104.2 403.6,140.7 
	412.5,140.7 412.5,86.8 "/>
<rect x="357.1" y="86.8" class="st0" width="9.4" height="53.9"/>
<path class="st0" d="M349.8,106v-3.1c0-10.5-7.7-17.3-21.2-17.3c-13.4,0-21.1,6.8-21.1,17.3v21.7c0,10.5,7.7,17.3,21.2,17.3
	s21.1-6.8,21.1-17.3v-12.7h-21.5v8.6h12.1v3.5c0,5.6-4.3,9.1-11.9,9.1c-7.5,0-11.8-3.5-11.8-9.1v-20.6c0-5.6,4.3-9.1,11.9-9.1
	c7.5,0,11.8,3.5,11.8,9.1v2.5L349.8,106L349.8,106z"/>
<polygon class="st0" points="291.5,86.8 291.5,123.5 270.2,86.8 261.5,86.8 261.5,140.7 270.2,140.7 270.2,104.2 291.5,140.7 
	300.2,140.7 300.2,86.8 "/>
<path class="st0" d="M85.8,154.2c0.7,1.3,1.8,2.3,3.1,3L151,193l0,0c2.6,1.5,5.7,1.5,8.2,0l62.1-35.8c2.6-1.5,4.1-4.2,4.1-7.2V78.4
	l0,0c0-3-1.5-5.7-4.1-7.2l-62.1-35.8l0,0c-2.6-1.5-5.7-1.5-8.2,0l0,0L88.9,71.2c-2.7,1.5-4.2,4.2-4.2,7.2l0,0v71.7
	C84.7,151.5,85,152.9,85.8,154.2"/>
<path class="st1" d="M135.2,141.5c0,4.4-3.5,8-8,8s-8-3.5-8-8l0,0V86.8c0-4.3,3.8-7.7,9-7.7c3.8,0,8.2,1.5,10.9,4.8l2.4,2.9
	l33.4,39.9V86.9l0,0c0-4.4,3.5-8,8-8s8,3.5,8,8l0,0v54.8c0,4.3-3.8,7.7-9,7.7c-3.8,0-8.2-1.5-10.9-4.8l-35.8-42.7V141.5L135.2,141.5
	z"/>
</svg>
